<svg
  xmlns="http://www.w3.org/2000/svg"
  xmlns:xlink="http://www.w3.org/1999/xlink"
  width="66.962"
  height="48.42"
  viewBox="0 0 66.962 53.42"
>
  <defs>
    <clipPath id="clip-path">
      <path
        id="Path_2000"
        data-name="Path 2000"
        d="M35.23.366a3.1,3.1,0,0,1,1.313,1.2h0L65.785,47.432c.011.011.016.027.027.038a6.915,6.915,0,0,1,.654,1.384,11.012,11.012,0,0,1,.42,1.613,3.99,3.99,0,0,1,.076.752,2.293,2.293,0,0,1-.392,1.357,1.927,1.927,0,0,1-1.27.79,2.4,2.4,0,0,1-.474.044H2.136a2.894,2.894,0,0,1-.474-.044,1.927,1.927,0,0,1-1.27-.79A2.293,2.293,0,0,1,0,51.219a4.038,4.038,0,0,1,.082-.752A10.528,10.528,0,0,1,.5,48.854a7.06,7.06,0,0,1,.654-1.384h0l.011-.016L30.418,1.57l.005-.011a3.127,3.127,0,0,1,1.313-1.2A4.272,4.272,0,0,1,35.23.366Z"
        transform="translate(0 0.01)"
        fill="#ff0101"
      />
    </clipPath>
    <clipPath id="clip-path-2">
      <rect
        id="Rectangle_4358"
        data-name="Rectangle 4358"
        width="66.962"
        height="53.415"
        fill="#ff0101"
      />
    </clipPath>
  </defs>
  <g id="alert" transform="translate(0)">
    <g id="Group_11750" data-name="Group 11750" transform="translate(0 0)">
      <g id="Group_11749" data-name="Group 11749" clip-path="url(#clip-path)">
        <g
          id="Group_11748"
          data-name="Group 11748"
          transform="translate(0 0.005)"
          clip-path="url(#clip-path-2)"
        >
          <rect
            id="Rectangle_4357"
            data-name="Rectangle 4357"
            width="68.008"
            height="54.145"
            transform="translate(-0.376 -0.38)"
            fill="#f14f4f"
          />
        </g>
      </g>
    </g>
    <path
      id="Path_2001"
      data-name="Path 2001"
      d="M56.321,55.24a2.889,2.889,0,0,1,1.809-.823,2.951,2.951,0,0,1,1.248.185,3.029,3.029,0,0,1,1.052.676,2.9,2.9,0,0,1,.845,1.847,3.008,3.008,0,0,1-.044.73,2.971,2.971,0,0,1-.218.7A2.893,2.893,0,0,1,59.5,60.03a2.925,2.925,0,0,1-1.2.218,3,3,0,0,1-1.177-.272,2.912,2.912,0,0,1-1.466-1.526,2.954,2.954,0,0,1-.185-.659,2.9,2.9,0,0,1-.033-.681V57.1a3.139,3.139,0,0,1,.294-1.046,2.419,2.419,0,0,1,.589-.817Zm4.24-5.324a1.887,1.887,0,0,1-1.411,1.749,2.536,2.536,0,0,1-.8.125,2.728,2.728,0,0,1-.8-.125,1.871,1.871,0,0,1-1.406-1.749c-.425-4.267-1.52-10.97-1.482-14.986.038-1.237,1.063-1.967,2.37-2.245a5.886,5.886,0,0,1,1.3-.125,6.283,6.283,0,0,1,1.3.131c1.351.289,2.42,1.052,2.42,2.311l-.005.125-1.482,14.79Z"
      transform="translate(-24.873 -14.811)"
      fill="#fff"
    />
  </g>
</svg>
