<svg xmlns="http://www.w3.org/2000/svg" width="30" height="24" viewBox="0 0 30 24">
  <path id="icons8-amazon-web-services" d="M6.584,9.014a4.377,4.377,0,0,0-2.971,1.094c-.06.16-.2,1.453.131,1.453.11,0,.16.026.48-.174a4.44,4.44,0,0,1,2.07-.612c1.35-.173,2.13,1.054,2.01,2.64v.932a6.6,6.6,0,0,0-2.111-.372C4.533,13.841,3,15.008,3,17.572c0,2.813,1.883,3.414,2.613,3.374a3.338,3.338,0,0,0,2.82-1.773c.55,1.64.9,1.531.91,1.531a.408.408,0,0,0,.26-.12l.57-.534a.52.52,0,0,0,.19-.372,7.087,7.087,0,0,1-.49-2.333V13.188a5.186,5.186,0,0,0-.8-3.135A2.892,2.892,0,0,0,6.584,9.014Zm19.374,0a3.147,3.147,0,0,0-3.119,3.359A3.238,3.238,0,0,0,24.8,15.508c1.69.707,1.921.732,2.391,1.265a1.658,1.658,0,0,1-.24,2.08,2.661,2.661,0,0,1-2.551.266,4.827,4.827,0,0,1-1.289-.573c-.12-.053-.4-.147-.4.346v.654a.851.851,0,0,0,.35.719,4.889,4.889,0,0,0,2.58.734,3.4,3.4,0,0,0,3.11-2.067,4.2,4.2,0,0,0-.2-3.317c-.64-1-1.19-1.106-2.83-1.773-.14-.053-1.35-.468-1.34-1.6-.06-1.453,1.42-1.532,1.73-1.5a5.2,5.2,0,0,1,2.209.638c.15,0,.221-.119.221-.385v-.614a.811.811,0,0,0-.09-.411C28.048,9.269,26.518,9.014,25.958,9.014Zm-15.18.333a.286.286,0,0,0-.17.32,3.154,3.154,0,0,0,.09.521l2.24,9.85c.05.32.209.668.559.614h.82c.5.067.57-.574.58-.64L16.368,11.8l1.49,8.225c.01.067.08.707.57.641h.83c.36.053.53-.294.58-.614C22.359,9.24,22.188,9.975,22.208,9.868c.04-.56-.2-.521-.24-.508h-.891c-.45-.067-.539.481-.559.614l-1.66,8.545-1.5-8.545c-.07-.653-.47-.628-.57-.614h-.77c-.44-.053-.55.415-.58.614L13.948,18.4l-1.6-8.425c-.04-.267-.171-.681-.561-.627ZM6.524,15.521a6.444,6.444,0,0,1,1.772.292,7.938,7.938,0,0,1-.092,1.64A2.3,2.3,0,0,1,5.985,19.28c-.84.053-1.39-.828-1.34-1.828A1.716,1.716,0,0,1,6.524,15.521Zm22.518,8.147a4.314,4.314,0,0,0-2.871,1.078c-.258.239-.213.57.074.526.94-.151,3.032-.489,3.406.148s-.415,3.266-.764,4.442c-.108.351.12.5.361.229,1.564-1.746,1.97-5.407,1.65-5.934A2.544,2.544,0,0,0,29.042,23.668ZM1.217,25c-.218.04-.312.408-.084.7A18.488,18.488,0,0,0,15.973,33a17.618,17.618,0,0,0,12.143-5.142c.543-.559.081-1.4-.477-1.065A22.637,22.637,0,0,1,16.315,30,23.281,23.281,0,0,1,1.469,25.086.317.317,0,0,0,1.217,25Z" transform="translate(-1.001 -8.996)"/>
</svg>
