<svg xmlns="http://www.w3.org/2000/svg" width="18" height="18" viewBox="0 0 18 18">
  <path id="browser-chrome" d="M4.54,7.838,1.964,3.377A9,9,0,0,1,16.743,4.4H9.4c-.132-.011-.265-.018-.4-.018A4.613,4.613,0,0,0,4.539,7.838h0ZM12.222,5.7H17.38A9,9,0,0,1,9.1,17.988l3.681-6.376A4.6,4.6,0,0,0,12.222,5.7ZM5.73,8.989A3.269,3.269,0,1,1,9,12.258,3.273,3.273,0,0,1,5.73,8.989Zm4.5,4.437L7.657,17.889a9,9,0,0,1-6.5-13.312l3.674,6.364a4.607,4.607,0,0,0,5.4,2.486h0Z" transform="translate(0 0.012)" fill-rule="evenodd" opacity="0.49"/>
</svg>
