<svg xmlns="http://www.w3.org/2000/svg" width="117.001" height="81.933" viewBox="0 0 117.001 81.933">
  <g id="cloud-data-upload" transform="translate(0.001 0.002)" opacity="0.42">
    <path id="Path_1305" data-name="Path 1305" d="M82.217,28.5c-.714.352-1.438.743-2.152,1.152A51.533,51.533,0,0,0,73.647,34.2l-4.608-5.275a38.193,38.193,0,0,1,5.142-4.008,35.411,35.411,0,0,1,4.551-2.523c.628-.314,1.257-.609,1.9-.885A28.061,28.061,0,0,0,68.277,9.893,30.162,30.162,0,0,0,52.386,7.131a28.716,28.716,0,0,0-14.872,5.808A27.909,27.909,0,0,0,27.3,30.211l-.457,2.39-2.38.419a32.785,32.785,0,0,0-6.246,1.685,20.89,20.89,0,0,0-4.732,2.533A15.7,15.7,0,0,0,10.616,39.9,16.164,16.164,0,0,0,6.979,50.472a19.11,19.11,0,0,0,3.609,10.978A17.94,17.94,0,0,0,13.6,64.688a15.1,15.1,0,0,0,3.932,2.361,19.844,19.844,0,0,0,4.846,1.276H39.323v7.008H22.261l-.438-.038a26.969,26.969,0,0,1-6.941-1.79,22.057,22.057,0,0,1-5.76-3.456,24.588,24.588,0,0,1-4.189-4.494A26.127,26.127,0,0,1,0,50.491,23.127,23.127,0,0,1,5.256,35.4a22.492,22.492,0,0,1,4.132-3.847,27.86,27.86,0,0,1,6.322-3.38,38.25,38.25,0,0,1,5.237-1.6A34.429,34.429,0,0,1,33.248,7.4,35.744,35.744,0,0,1,51.739.171,37.077,37.077,0,0,1,71.305,3.6,35.136,35.136,0,0,1,87.587,19.661h0a27.322,27.322,0,0,1,4.561-.343,23.379,23.379,0,0,1,17.424,7.569,27.8,27.8,0,0,1,2.885,3.713A31.372,31.372,0,0,1,117,47.664c-.067,6.008-1.685,11.987-5,16.386a26.133,26.133,0,0,1-8.255,7.065,42.309,42.309,0,0,1-11.121,4.123l-.781.1H77.675V68.325H91.452a34.919,34.919,0,0,0,8.855-3.313,19.079,19.079,0,0,0,6.084-5.151c2.38-3.171,3.551-7.655,3.6-12.254a24.248,24.248,0,0,0-3.418-13.2,19.759,19.759,0,0,0-2.142-2.752A16.522,16.522,0,0,0,92.1,26.307a24.1,24.1,0,0,0-9.883,2.19Zm-23.8,9.626L80.093,60.67H66.135V81.931H50.691V60.67H36.733l21.68-22.546Z" transform="translate(0 0)" fill="#8b8989"/>
  </g>
</svg>
