<svg xmlns="http://www.w3.org/2000/svg" width="469" height="245.839" viewBox="0 0 469 245.839">
  <g id="Group_12151" data-name="Group 12151" transform="translate(-801.272 -389.667)" opacity="0.51">
    <g id="data-collection" transform="translate(960.855 389.667)">
      <path id="Path_17678" data-name="Path 17678" d="M145.915,54.4c15.11,5.529,36.163,8.906,59.558,8.906s44.414-3.414,59.558-8.906c13.277-4.861,21.494-10.687,21.494-16.439s-8.217-11.615-21.494-16.439c-15.11-5.492-36.163-8.906-59.558-8.906s-44.448,3.377-59.558,8.906c-28.149,10.279-28.964,22.3,0,32.877Zm140.61,116.852a70.433,70.433,0,0,1-17.861,9.24c-16.3,5.937-38.642,9.611-63.191,9.611s-46.893-3.674-63.191-9.611a71.719,71.719,0,0,1-17.725-9.091v37.7c1.053,5.344,9,10.761,21.358,15.251,15.11,5.529,36.163,8.906,59.558,8.906s44.414-3.414,59.558-8.906c9.168-3.34,15.925-7.2,19.219-11.1,2.717-3.228,2.275-5.381,2.275-9.277V171.252ZM112.91,37.961c0-11.763,11.205-21.708,29.372-28.313C158.547,3.674,180.923,0,205.473,0s46.893,3.674,63.191,9.611c16.5,6.011,27.3,14.806,29.1,25.233a7.224,7.224,0,0,1,.34,2.115V210.512c0,12.023-21.052,22.673-29.439,25.716-16.3,5.937-38.642,9.611-63.191,9.611s-46.893-3.674-63.191-9.611c-8.591-3.154-29.236-13.433-29.236-25.716V206.5Q113,122.177,112.91,37.961Zm11.647,115.368c1.053,5.344,9,10.761,21.358,15.251,15.11,5.529,36.163,8.943,59.558,8.943s44.414-3.414,59.558-8.943c13.277-4.824,21.494-10.687,21.494-16.439h.068V115.516a70.691,70.691,0,0,1-17.895,9.24c-16.3,5.937-38.641,9.611-63.191,9.611s-46.893-3.674-63.191-9.611a71.719,71.719,0,0,1-17.725-9.091v37.664Zm0-55.736c1.053,5.344,9,10.761,21.358,15.251,15.11,5.529,36.163,8.906,59.558,8.906s44.414-3.414,59.558-8.906c13.277-4.824,21.494-10.687,21.494-16.439h.068V57.072a70.69,70.69,0,0,1-17.895,9.24c-16.3,5.937-38.641,9.611-63.191,9.611s-46.893-3.674-63.191-9.611a71.719,71.719,0,0,1-17.725-9.091V97.593Z" transform="translate(11.313 0)" fill="#05204a" fill-rule="evenodd"/>
      <path id="previous-arrow" d="M48.672,18.039A9.8,9.8,0,0,1,49,3.268a12.776,12.776,0,0,1,16.477-.037L98.088,32.965a9.81,9.81,0,0,1,0,14.808L66.138,76.907a12.685,12.685,0,0,1-11.453,3.013,11.27,11.27,0,0,1-8.513-7.5A9.85,9.85,0,0,1,49.333,62.1L61.786,50.712l-50.1-.215C5.177,50.448-.055,45.678,0,39.843S5.375,29.318,11.883,29.367l49.424.207Z" transform="translate(0.001 83.067)" fill="#b4b6b8"/>
    </g>
    <g id="stack" transform="translate(801.272 454.492)">
      <path id="Path_17679" data-name="Path 17679" d="M67.9,0,0,29.447,68.187,57.161,136.44,29.535,67.9,0ZM136.44,63.423,105.994,50.31,69.652,65.022a3.909,3.909,0,0,1-2.942,0L30.279,50.21,0,63.346l68.187,27.7L136.44,63.423ZM106.749,83.9,69.652,98.91a3.909,3.909,0,0,1-2.942,0L29.524,83.8,0,96.612l68.187,27.714L136.44,96.7,106.749,83.9Z" fill="#05204a"/>
    </g>
  </g>
</svg>
