<svg xmlns="http://www.w3.org/2000/svg" width="18" height="17.667" viewBox="0 0 18 17.667">
  <path id="download-file" d="M12.39,7.111a1.129,1.129,0,1,1,1.582,1.611l-4.291,4.23a1.131,1.131,0,0,1-1.585,0L3.867,8.776A1.13,1.13,0,0,1,5.451,7.165L7.778,9.472,7.8,1.347a1.131,1.131,0,0,1,2.26.019L10.04,9.422ZM0,16.849l.015-4.421a1.131,1.131,0,1,1,2.26.021l-.01,3.223q6.738.013,13.463,0l.01-3.24A1.131,1.131,0,0,1,18,12.452l-.015,4.395h-.013a1.129,1.129,0,0,1-1.119,1.078q-7.871.015-15.729,0A1.128,1.128,0,0,1,0,16.849Z" transform="translate(0 -0.265)" fill="#ffffff"/>
</svg>
