<svg id="edit" xmlns="http://www.w3.org/2000/svg" width="24" height="23.729" viewBox="0 0 24 23.729">
  <path id="edit-2" data-name="edit" d="M5.6.333h5.9L8.684,3.276H5.6a2.641,2.641,0,0,0-1.873.781h0a2.641,2.641,0,0,0-.781,1.873V20.8H17.814a2.637,2.637,0,0,0,1.873-.781h0a2.637,2.637,0,0,0,.781-1.873V15.11l2.943-3.074v6.111A5.586,5.586,0,0,1,21.769,22.1v.01a5.582,5.582,0,0,1-3.945,1.639H2.246a2.24,2.24,0,0,1-1.582-.658h0A2.25,2.25,0,0,1,0,21.5V5.931A5.582,5.582,0,0,1,1.643,1.983l.01-.018A5.582,5.582,0,0,1,5.6.325Zm8.66,14.615L8.512,16.12,9.342,10Zm-3.1-6.795L18.808.19a.535.535,0,0,1,.662-.1l4.391,4.25a.467.467,0,0,1-.037.7L16.07,13.1Z" transform="translate(0 -0.016)" fill="#05204a"/>
</svg>
