<svg xmlns="http://www.w3.org/2000/svg" width="277.238" height="166.14" viewBox="0 0 277.238 166.14">
  <g id="Group_11899" data-name="Group 11899" transform="translate(-963.38 -423.793)">
    <g id="cloud-data-upload" transform="translate(1043.5 508.002)" opacity="0.42">
      <path id="Path_1305" data-name="Path 1305" d="M82.217,28.5c-.714.352-1.438.743-2.152,1.152A51.533,51.533,0,0,0,73.647,34.2l-4.608-5.275a38.193,38.193,0,0,1,5.142-4.008,35.411,35.411,0,0,1,4.551-2.523c.628-.314,1.257-.609,1.9-.885A28.061,28.061,0,0,0,68.277,9.893,30.162,30.162,0,0,0,52.386,7.131a28.716,28.716,0,0,0-14.872,5.808A27.909,27.909,0,0,0,27.3,30.211l-.457,2.39-2.38.419a32.785,32.785,0,0,0-6.246,1.685,20.89,20.89,0,0,0-4.732,2.533A15.7,15.7,0,0,0,10.616,39.9,16.164,16.164,0,0,0,6.979,50.472a19.11,19.11,0,0,0,3.609,10.978A17.94,17.94,0,0,0,13.6,64.688a15.1,15.1,0,0,0,3.932,2.361,19.844,19.844,0,0,0,4.846,1.276H39.323v7.008H22.261l-.438-.038a26.969,26.969,0,0,1-6.941-1.79,22.057,22.057,0,0,1-5.76-3.456,24.588,24.588,0,0,1-4.189-4.494A26.127,26.127,0,0,1,0,50.491,23.127,23.127,0,0,1,5.256,35.4a22.492,22.492,0,0,1,4.132-3.847,27.86,27.86,0,0,1,6.322-3.38,38.25,38.25,0,0,1,5.237-1.6A34.429,34.429,0,0,1,33.248,7.4,35.744,35.744,0,0,1,51.739.171,37.077,37.077,0,0,1,71.305,3.6,35.136,35.136,0,0,1,87.587,19.661h0a27.322,27.322,0,0,1,4.561-.343,23.379,23.379,0,0,1,17.424,7.569,27.8,27.8,0,0,1,2.885,3.713A31.372,31.372,0,0,1,117,47.664c-.067,6.008-1.685,11.987-5,16.386a26.133,26.133,0,0,1-8.255,7.065,42.309,42.309,0,0,1-11.121,4.123l-.781.1H77.675V68.325H91.452a34.919,34.919,0,0,0,8.855-3.313,19.079,19.079,0,0,0,6.084-5.151c2.38-3.171,3.551-7.655,3.6-12.254a24.248,24.248,0,0,0-3.418-13.2,19.759,19.759,0,0,0-2.142-2.752A16.522,16.522,0,0,0,92.1,26.307a24.1,24.1,0,0,0-9.883,2.19Zm-23.8,9.626L80.093,60.67H66.135V81.931H50.691V60.67H36.733l21.68-22.546Z" transform="translate(0 0)" fill="#8b8989"/>
    </g>
    <g id="xlsx-file" transform="translate(1044.369 423.793)" opacity="0.42">
      <path id="Path_1307" data-name="Path 1307" d="M9.306,24.725H39.153V16.2H30.191a4.7,4.7,0,0,1-2.872-1.128,4.059,4.059,0,0,1-1-2.676V3.314H3.541a.253.253,0,0,0-.178.078.191.191,0,0,0-.082.182V49.748a.291.291,0,0,0,.078.178A.212.212,0,0,0,3.537,50H38.893c.078,0,.074-.039.117-.078.061-.039.143-.121.143-.178V44.908H9.306a3.293,3.293,0,0,1-3.279-3.279V28a3.292,3.292,0,0,1,3.279-3.275Zm1.657,5.838h2.9l1.509,2.62,1.466-2.62h2.867l-2.646,4.125,2.9,4.39H17l-1.67-2.737-1.683,2.737H10.707l2.937-4.437-2.681-4.077Zm9.66,0h2.629v6.424h4.116v2.1H20.622V30.563Zm7.3,5.7,2.5-.156a1.893,1.893,0,0,0,.33.924,1.4,1.4,0,0,0,1.162.516,1.281,1.281,0,0,0,.868-.265.764.764,0,0,0,.017-1.206,3.368,3.368,0,0,0-1.345-.494,5.659,5.659,0,0,1-2.464-1.032,2.076,2.076,0,0,1-.742-1.64,2.2,2.2,0,0,1,.382-1.236,2.515,2.515,0,0,1,1.145-.92,5.361,5.361,0,0,1,2.1-.334,4.3,4.3,0,0,1,2.49.607,2.617,2.617,0,0,1,1.019,1.935l-2.472.147A1.166,1.166,0,0,0,31.618,32a1.046,1.046,0,0,0-.69.2.589.589,0,0,0-.23.473.487.487,0,0,0,.187.364,2.106,2.106,0,0,0,.876.312,10.786,10.786,0,0,1,2.468.755,2.585,2.585,0,0,1,1.084.946,2.391,2.391,0,0,1,.338,1.262,2.714,2.714,0,0,1-.451,1.51,2.856,2.856,0,0,1-1.267,1.05,5.1,5.1,0,0,1-2.047.356,4.2,4.2,0,0,1-3.006-.837,3.239,3.239,0,0,1-.954-2.125Zm8.281-5.7h2.9l1.51,2.62,1.462-2.62h2.867L42.3,34.688l2.9,4.39H42.237l-1.67-2.737-1.683,2.737H35.947l2.937-4.437-2.676-4.077Zm6.216-5.838h4.307A3.291,3.291,0,0,1,50.01,28V41.633a3.293,3.293,0,0,1-3.279,3.279H42.423v5.878a2.518,2.518,0,0,1-2.516,2.516H2.526A2.518,2.518,0,0,1,.01,50.789V2.538A2.518,2.518,0,0,1,2.526.022H28A.489.489,0,0,1,28.174,0a1.18,1.18,0,0,1,.759.3h.039a.393.393,0,0,1,.1.078L42.081,13.546a1.226,1.226,0,0,1,.382.859,1.631,1.631,0,0,1-.039.282V24.725ZM29.293,12.132V3.878l9.3,9.413H30.452a1.22,1.22,0,0,1-.82-.338,1.178,1.178,0,0,1-.338-.82Z" fill="#acb3b5" fill-rule="evenodd"/>
    </g>
    <g id="txt-file" transform="translate(1114.369 423.834)" opacity="0.42">
      <path id="Path_1308" data-name="Path 1308" d="M11.015,24.725H39.157V16.2H30.191a4.7,4.7,0,0,1-2.872-1.128,4.059,4.059,0,0,1-1-2.676V3.314H3.541a.253.253,0,0,0-.178.078.191.191,0,0,0-.082.182V49.748a.291.291,0,0,0,.078.178A.212.212,0,0,0,3.537,50H38.893c.078,0,.074-.039.117-.078.061-.039.143-.121.143-.178V44.908H11.015a3.293,3.293,0,0,1-3.279-3.279V28a3.287,3.287,0,0,1,3.279-3.275Zm1.813,4.823h9.69V32.1H19.265v7.764H16.081V32.1H12.828V29.548Zm10.441,0h3.513l1.826,3.175,1.774-3.175h3.47l-3.206,5,3.5,5.318H30.564l-2.021-3.314L26.5,39.863H22.947L26.5,34.489l-3.236-4.941Zm11.217,0h9.69V32.1H40.923v7.764H37.739V32.1H34.486V29.548Zm7.938-4.823h4.307A3.291,3.291,0,0,1,50.01,28V41.633a3.293,3.293,0,0,1-3.279,3.279H42.423v5.878a2.518,2.518,0,0,1-2.516,2.516H2.526A2.518,2.518,0,0,1,.01,50.789V2.538A2.518,2.518,0,0,1,2.526.022H28A.489.489,0,0,1,28.174,0a1.18,1.18,0,0,1,.759.3h.039a.393.393,0,0,1,.1.078L42.081,13.546a1.226,1.226,0,0,1,.382.859,1.631,1.631,0,0,1-.039.282V24.725ZM29.293,12.132V3.878l9.3,9.413H30.452a1.22,1.22,0,0,1-.82-.338,1.178,1.178,0,0,1-.338-.82Z" transform="translate(-4)" fill="#acb3b5" fill-rule="evenodd"/>
    </g>
    <path id="json-file" d="M8.347,23.39H37.025V15.32H28.543a4.451,4.451,0,0,1-2.717-1.069,3.842,3.842,0,0,1-.946-2.534V3.127H3.316a.24.24,0,0,0-.17.076.184.184,0,0,0-.076.17v43.7a.282.282,0,0,0,.076.17.206.206,0,0,0,.17.075H36.779c.076,0,.072-.037.109-.075.057-.038.137-.114.137-.17V42.494H8.347a3.115,3.115,0,0,1-3.1-3.1v-12.9a3.112,3.112,0,0,1,3.1-3.1Zm4.787,4.445h2.847v5.547a9.691,9.691,0,0,1-.277,2.66,3.027,3.027,0,0,1-1.122,1.546,3.509,3.509,0,0,1-2.159.633,4.547,4.547,0,0,1-2.154-.418A2.837,2.837,0,0,1,9.087,36.58,4.962,4.962,0,0,1,8.6,34.592l2.705-.409a3.809,3.809,0,0,0,.106,1,1.081,1.081,0,0,0,.341.528.717.717,0,0,0,.463.131.751.751,0,0,0,.7-.392,2.876,2.876,0,0,0,.222-1.324V27.835ZM17.4,34.671l2.693-.188a2.417,2.417,0,0,0,.357,1.108,1.444,1.444,0,0,0,1.252.618,1.285,1.285,0,0,0,.934-.316.977.977,0,0,0,.019-1.445,3.414,3.414,0,0,0-1.448-.592,5.831,5.831,0,0,1-2.658-1.239,2.612,2.612,0,0,1-.8-1.969,2.881,2.881,0,0,1,.411-1.484,2.779,2.779,0,0,1,1.233-1.1,5.252,5.252,0,0,1,2.257-.4,4.243,4.243,0,0,1,2.682.73,3.257,3.257,0,0,1,1.1,2.318l-2.667.176a1.68,1.68,0,0,0-.447-1.01,1.333,1.333,0,0,0-.942-.316,1.066,1.066,0,0,0-.747.233.747.747,0,0,0-.249.568.6.6,0,0,0,.2.438,2.136,2.136,0,0,0,.947.376,10.99,10.99,0,0,1,2.66.9,2.911,2.911,0,0,1,1.171,1.132,3.121,3.121,0,0,1,.366,1.512,3.521,3.521,0,0,1-.487,1.812,3.163,3.163,0,0,1-1.365,1.258,5.012,5.012,0,0,1-2.207.428,4.239,4.239,0,0,1-3.242-1,4.168,4.168,0,0,1-1.02-2.546Zm9.411-1.722a5.613,5.613,0,0,1,1.252-3.892,4.451,4.451,0,0,1,3.49-1.393,4.528,4.528,0,0,1,3.532,1.367,5.51,5.51,0,0,1,1.24,3.836,6.874,6.874,0,0,1-.541,2.934,4.129,4.129,0,0,1-1.566,1.783,4.749,4.749,0,0,1-2.553.637,5.373,5.373,0,0,1-2.571-.549,4.091,4.091,0,0,1-1.65-1.743,6.3,6.3,0,0,1-.633-2.979Zm2.834.007a3.7,3.7,0,0,0,.518,2.22,1.829,1.829,0,0,0,2.827.014,4.092,4.092,0,0,0,.5-2.375,3.4,3.4,0,0,0-.524-2.1,1.711,1.711,0,0,0-1.421-.666,1.659,1.659,0,0,0-1.381.675A3.706,3.706,0,0,0,29.646,32.956Zm7.911-5.122H40.2l3.442,5.64v-5.64h2.68V38.049h-2.68L40.224,32.44v5.609H37.557V27.835Zm2.562-4.445h6.749a3.115,3.115,0,0,1,3.1,3.1v12.9a3.118,3.118,0,0,1-3.1,3.1H40.118v5.562a2.39,2.39,0,0,1-2.384,2.384H2.354A2.39,2.39,0,0,1-.03,48.056V2.393A2.358,2.358,0,0,1,.67.709a2.391,2.391,0,0,1,1.684-.7H26.461a.524.524,0,0,1,.17-.019,1.106,1.106,0,0,1,.719.283h.038a.332.332,0,0,1,.095.076L39.8,12.815a1.16,1.16,0,0,1,.359.813,1.278,1.278,0,0,1-.038.265v9.5ZM27.691,11.473V3.66l8.8,8.909h-7.7a1.156,1.156,0,0,1-.776-.321A1.118,1.118,0,0,1,27.691,11.473Z" transform="translate(1193.658 443.512) rotate(20)" fill="#acb3b5" fill-rule="evenodd" opacity="0.54"/>
    <g id="csv-file" transform="translate(963.371 460.594) rotate(-20)" opacity="0.12">
      <path id="Path_15212" data-name="Path 15212" d="M11.015,24.727H39.157V16.2H30.191A4.7,4.7,0,0,1,27.32,15.07a4.059,4.059,0,0,1-1-2.677V3.314H3.541a.253.253,0,0,0-.178.078.191.191,0,0,0-.082.182V49.753a.291.291,0,0,0,.078.178.212.212,0,0,0,.178.078H38.893c.078,0,.074-.039.117-.078.061-.039.143-.121.143-.178V44.912H11.015a3.294,3.294,0,0,1-3.279-3.28V28a3.287,3.287,0,0,1,3.279-3.275Zm8.892,11,2.728.824a5.008,5.008,0,0,1-.868,1.917A3.755,3.755,0,0,1,20.3,39.628a5.508,5.508,0,0,1-2.23.39,6.5,6.5,0,0,1-2.685-.477,4.283,4.283,0,0,1-1.8-1.679,5.689,5.689,0,0,1-.759-3.076,5.226,5.226,0,0,1,1.327-3.839,5.074,5.074,0,0,1,3.765-1.34,5.12,5.12,0,0,1,2.993.768,4.519,4.519,0,0,1,1.618,2.364l-2.741.607a2.209,2.209,0,0,0-.3-.668A1.786,1.786,0,0,0,18,31.941a1.834,1.834,0,0,0-1.627.85,3.621,3.621,0,0,0-.425,1.978,3.779,3.779,0,0,0,.508,2.295,1.749,1.749,0,0,0,1.431.62,1.72,1.72,0,0,0,1.349-.5,3.061,3.061,0,0,0,.668-1.458Zm3.726.79,2.954-.187a2.258,2.258,0,0,0,.39,1.093,1.644,1.644,0,0,0,1.375.612,1.512,1.512,0,0,0,1.024-.312.9.9,0,0,0,.022-1.427,3.961,3.961,0,0,0-1.588-.586A6.659,6.659,0,0,1,24.9,34.483a2.457,2.457,0,0,1-.881-1.943,2.634,2.634,0,0,1,.451-1.462,2.959,2.959,0,0,1,1.353-1.085A6.3,6.3,0,0,1,28.3,29.6a5.022,5.022,0,0,1,2.941.72A3.1,3.1,0,0,1,32.443,32.6l-2.928.174a1.613,1.613,0,0,0-.49-1,1.569,1.569,0,0,0-1.032-.312,1.273,1.273,0,0,0-.82.23.7.7,0,0,0-.273.56.555.555,0,0,0,.221.429,2.459,2.459,0,0,0,1.037.369,13.071,13.071,0,0,1,2.919.889A3.046,3.046,0,0,1,32.36,35.06a2.817,2.817,0,0,1,.4,1.492,3.209,3.209,0,0,1-.534,1.787,3.382,3.382,0,0,1-1.5,1.241,6.039,6.039,0,0,1-2.42.421,4.989,4.989,0,0,1-3.557-.989,3.835,3.835,0,0,1-1.119-2.5Zm9.734-6.741H36.62l2.269,7.249,2.238-7.249h3.158L40.545,39.845h-3.37L33.366,29.772Zm9.057-5.045h4.307a3.291,3.291,0,0,1,3.279,3.28v13.63a3.294,3.294,0,0,1-3.279,3.28H42.423v5.878a2.518,2.518,0,0,1-2.516,2.516H2.526A2.518,2.518,0,0,1,.01,50.794V2.538A2.518,2.518,0,0,1,2.526.022H28A.489.489,0,0,1,28.174,0a1.18,1.18,0,0,1,.759.3h.039a.393.393,0,0,1,.1.078l13.009,13.17a1.226,1.226,0,0,1,.382.859,1.631,1.631,0,0,1-.039.282V24.727ZM29.293,12.133V3.878l9.3,9.414H30.452a1.22,1.22,0,0,1-.82-.338,1.179,1.179,0,0,1-.338-.82Z" fill-rule="evenodd"/>
    </g>
  </g>
</svg>
