<svg id="success-green-check-mark" xmlns="http://www.w3.org/2000/svg" width="57.843" height="57.839" viewBox="0 0 57.843 57.839">
  <path id="Path_2002" data-name="Path 2002" d="M28.919,0A28.827,28.827,0,0,1,41.443,2.845C39.89,4.073,38.451,5.252,37.11,6.387A23.943,23.943,0,1,0,52.449,24.316q1.865-2.432,3.818-4.84A28.931,28.931,0,1,1,28.919,0ZM15.447,24.168l7.055-.093.526.138a27.216,27.216,0,0,1,4.019,2.82,27.6,27.6,0,0,1,2.589,2.506,101.738,101.738,0,0,1,8.077-11.251,96.377,96.377,0,0,1,9.91-10.308l.688-.265h7.7L54.458,9.438a164.534,164.534,0,0,0-13.01,16.43,160.155,160.155,0,0,0-10.519,17.5l-.968,1.867-.889-1.9a46.161,46.161,0,0,0-5.95-9.645,38.96,38.96,0,0,0-8.249-7.635l.575-1.887Z" fill="#01a601"/>
</svg>
