<svg
  xmlns="http://www.w3.org/2000/svg"
  width="20"
  height="22.001"
  viewBox="0 0 22 22.001"
>
  <g id="job_queue" data-name="job queue" transform="translate(-1263 -127)">
    <g
      id="Subtraction_33"
      data-name="Subtraction 33"
      transform="translate(1262.998 127.002)"
      fill="none"
      stroke-linecap="round"
      stroke-linejoin="round"
    >
      <path
        d="M15.264,22H2a2,2,0,0,1-2-2V2A2,2,0,0,1,2,0H20a2,2,0,0,1,2,2V13.056L15.264,22Z"
        stroke="none"
      />
      <path
        d="M 14.26685428619385 19.99870109558105 L 20.00229835510254 12.38642406463623 L 20.00226020812988 1.999547958374023 C 20.00173759460449 1.998900175094604 20.00130653381348 1.998358249664307 20.00160026550293 1.998200297355652 L 2.004810333251953 1.996830224990845 C 2.003792285919189 1.997412085533142 2.002212524414062 1.998891353607178 2.001800298690796 1.99870777130127 L 2.000620365142822 19.99557113647461 C 2.001100063323975 19.99642944335938 2.002200126647949 19.99768447875977 2.003295421600342 19.99870109558105 L 14.26685428619385 19.99870109558105 M 15.26410007476807 21.99870109558105 L 2.001600503921509 21.99870109558105 C 0.8989104032516479 21.99870109558105 0.001800399739295244 21.1011905670166 0.001800399739295244 19.99800109863281 L 0.001800399739295244 1.998000264167786 C 0.001800399739295244 0.8953102827072144 0.8989104032516479 -0.00179972080513835 2.001600503921509 -0.00179972080513835 L 20.00160026550293 -0.00179972080513835 C 21.10478973388672 -0.00179972080513835 22.00230026245117 0.8953102827072144 22.00230026245117 1.998000264167786 L 22.00230026245117 13.0555305480957 L 15.26410007476807 21.99870109558105 Z"
        stroke="none"
        fill="#fff"
      />
    </g>
    <line
      id="Line_1090"
      data-name="Line 1090"
      y1="8.5"
      transform="translate(1277.208 138.5)"
      fill="none"
      stroke="#fff"
      stroke-linecap="round"
      stroke-width="2"
    />
    <line
      id="Line_1091"
      data-name="Line 1091"
      x1="6"
      y2="0.041"
      transform="translate(1277.5 138.459)"
      fill="none"
      stroke="#fff"
      stroke-linecap="round"
      stroke-width="2"
    />
    <rect
      id="Rectangle_4805"
      data-name="Rectangle 4805"
      width="9"
      height="2"
      rx="1"
      transform="translate(1266.206 137.909)"
      fill="#fff"
    />
    <rect
      id="Rectangle_4806"
      data-name="Rectangle 4806"
      width="9"
      height="2"
      rx="1"
      transform="translate(1266.206 142.455)"
      fill="#fff"
    />
  </g>
</svg>
