<svg id="Cyan_Blue" data-name="Cyan Blue" xmlns="http://www.w3.org/2000/svg" viewBox="0 0 1703.74 779.68"><defs><style>.cls-1,.cls-2{fill:#f5fcfb;}.cls-2{font-size:149.58px;font-family:PlutoSansW04-Bold;font-weight:700;}.cls-3{fill:#f5fcfb;}</style></defs><title>NIMBUS Duo</title><path class="cls-1" d="M603.54,1271a269.14,269.14,0,0,1-51.23,36.4,296,296,0,0,1-122.85,36,280.12,280.12,0,0,1-32.79.36c-2.73-.13-5.48-.22-8.22-.4l-8.21-.73c-5.51-.37-10.94-1.32-16.4-2.08a284.19,284.19,0,0,1-64.09-17.73c-5.23-2-10.27-4.45-15.36-6.79-2.57-1.13-5-2.47-7.53-3.78l-7.45-3.94-7.28-4.3c-2.42-1.44-4.87-2.84-7.2-4.44-4.69-3.13-9.45-6.19-13.93-9.66a253.23,253.23,0,0,1-49-47.3,261.67,261.67,0,0,1-19.35-28.12l-4.26-7.37c-1.39-2.47-2.64-5-4-7.51l-2-3.78c-.64-1.26-1.21-2.55-1.82-3.83l-3.59-7.69a290.69,290.69,0,0,1-20.62-165.08c.45-2.77,1.05-5.52,1.57-8.28l.82-4.14c.28-1.37.65-2.73,1-4.1l2-8.19,2.36-8.1,1.2-4,1.38-4c.93-2.66,1.81-5.32,2.8-8,2.11-5.22,4-10.5,6.49-15.58a238.61,238.61,0,0,1,16-29.67l4.62-7c1.54-2.35,3.28-4.56,4.92-6.83,3.23-4.59,6.94-8.82,10.45-13.17,1.82-2.12,3.74-4.16,5.61-6.24l2.82-3.09c.94-1,1.95-2,2.93-3,3.87-4,8-7.73,12.19-11.42a227.13,227.13,0,0,1,26.55-19.87A245.3,245.3,0,0,1,271,838.77a253.64,253.64,0,0,1,61.39-19,249.06,249.06,0,0,1,62.81-3.27,354,354,0,0,0-58.91,17.22,294.77,294.77,0,0,0-27.4,12.4,257.07,257.07,0,0,0-25.55,15A228,228,0,0,0,260,878.72a216.91,216.91,0,0,0-20.58,20.07c-3.14,3.6-6.21,7.22-9.14,11-.73.93-1.5,1.83-2.2,2.78L226,915.41c-1.38,1.93-2.81,3.81-4.14,5.75-2.54,4-5.27,7.84-7.53,12-1.16,2.05-2.42,4-3.52,6.11l-3.28,6.24c-17,33.56-25.28,71.06-25.4,108.6a272.12,272.12,0,0,0,22.5,109.26,240.84,240.84,0,0,0,27.93,47.85A223.38,223.38,0,0,0,271,1250.88a263.23,263.23,0,0,0,22.67,16.37l6,3.62c2,1.19,4,2.48,6.09,3.55,4.14,2.22,8.23,4.58,12.53,6.53l6.37,3.1,6.53,2.82c4.3,2,8.81,3.49,13.23,5.26,2.21.91,4.49,1.59,6.75,2.36l6.79,2.28,6.9,2c2.31.64,4.6,1.37,6.94,1.87l7,1.66c2.33.6,4.7,1,7.06,1.52l7.09,1.42c2.38.42,4.77.75,7.16,1.13s4.78.81,7.19,1l7.23.78,3.62.4,3.63.28,7.29.53,1.83.14,1.82,0,3.66.11,7.34.22,7.34-.12c2.45-.08,4.92,0,7.36-.13,9.82-.4,19.68-1.16,29.5-2.5a340.37,340.37,0,0,0,58.6-13A396.76,396.76,0,0,0,603.54,1271Z" transform="translate(-132.53 -564.37)"/><path class="cls-1" d="M615.94,614.28c-12.9-3.23-25.58-6.07-38.22-8.21A366.28,366.28,0,0,0,540,601.68,335.14,335.14,0,0,0,466.49,605,306,306,0,0,0,242.06,764.74a335.83,335.83,0,0,0-27.27,68.33,364.49,364.49,0,0,0-8.24,37.06c-2.14,12.64-3.63,25.55-4.83,38.8a200.14,200.14,0,0,1-9.66-38.88c-.48-3.33-.9-6.68-1.28-10s-.57-6.73-.86-10.12-.27-6.77-.4-10.18,0-6.8,0-10.23a258.77,258.77,0,0,1,15.05-81.08,272.93,272.93,0,0,1,39.91-73.72,280,280,0,0,1,136.17-96.81,272.77,272.77,0,0,1,82.72-13.49,259.43,259.43,0,0,1,81.53,12.37,239.66,239.66,0,0,1,37.48,15.69A200.39,200.39,0,0,1,615.94,614.28Z" transform="translate(-132.53 -564.37)"/><path class="cls-1" d="M506.4,679.57a165.52,165.52,0,0,1,18.87-25.71,205.4,205.4,0,0,1,23.23-22.43,222.59,222.59,0,0,1,56.32-33.55,232.19,232.19,0,0,1,132.31-13.16c5.56,1.12,11.09,2.37,16.56,3.86,2.75.7,5.45,1.57,8.16,2.4l4,1.27,4,1.42A216.81,216.81,0,0,1,801,607.38a209.85,209.85,0,0,1,28.51,18.17,223.85,223.85,0,0,1,25.18,22.07A218.15,218.15,0,0,1,876,672.88a222.05,222.05,0,0,1,17.19,27.73,214.26,214.26,0,0,1,12.72,29.62,153.57,153.57,0,0,1,7.44,31c-6.62-8.3-13.22-16.2-20-23.81s-13.73-14.83-20.79-21.75a342.15,342.15,0,0,0-44.53-37q-11.67-8-23.81-14.8c-2-1.1-4-2.29-6.1-3.3s-4.11-2.1-6.16-3.15c-4.19-1.92-8.29-4-12.54-5.69a239.8,239.8,0,0,0-25.73-9.37l-3.26-1-3.29-.91c-2.2-.61-4.39-1.24-6.62-1.73-4.41-1.16-8.87-2.1-13.34-3-35.81-7-73.13-6.48-110.23,1.07a339,339,0,0,0-55.45,16.47q-13.77,5.43-27.5,12C524.88,669.72,515.77,674.56,506.4,679.57Z" transform="translate(-132.53 -564.37)"/><path class="cls-1" d="M1179,1110.19h-52.86V842.48a81.52,81.52,0,0,1,22.19-56,79,79,0,0,1,54-25.15c21.64-1,42.4,6.93,58.42,22.42,16.23,15.68,25.36,37.21,25.06,59.06a78.61,78.61,0,0,1-14.35,43.89,95.55,95.55,0,0,1,11.62,9.08c11.12,10.15,30,32.22,31.71,66,1.66,33.12-14.45,56.79-24.2,68a99,99,0,0,1-44,28.79,101.11,101.11,0,0,1-55.34,1.91v-51a147.06,147.06,0,0,0,24.65.67c7-.41,10.52-.69,15.12-2.11a44.08,44.08,0,0,0,19.75-13c4.5-5.16,12-16,11.22-30.55-.77-15.42-10.44-25.83-14.56-29.59A46.79,46.79,0,0,0,1217,923l-26-.4v-26c0-.55,0-.95,0-1.82l-.15-20.11,19.34-5.51c13.18-3.75,22.49-14.84,22.66-27,.1-7.23-3.25-14.83-8.95-20.34-3.14-3-9.83-8.07-19.16-7.62-14.22.67-25.8,13.38-25.8,28.32Z" transform="translate(-132.53 -564.37)"/><text class="cls-2" transform="translate(311.48 655.9)">DUO</text><path class="cls-3" d="M610.06,943.86V801.39H661.8v262.49L507.07,916.48V1059H455.5V796.61Z" transform="translate(-132.53 -564.37)"/><path class="cls-3" d="M765.76,1063.29H712.41v-266h53.35Z" transform="translate(-132.53 -564.37)"/><polygon class="cls-3" points="886.37 497.72 938.97 497.88 938.97 343.27 886.37 416.12 886.37 497.72"/><polygon class="cls-3" points="735.23 303.25 682.63 231.14 682.63 499 735.23 499 735.23 411.05 735.23 390.56 735.23 384.08 735.23 323.74 735.23 303.25"/><polygon class="cls-1" points="749.88 410.75 810.88 494.78 943.24 312.25 942.84 225.82 810.88 406.95 749.75 322.73 749.88 410.75"/><path class="cls-3" d="M1545.72,1033.9q-27.29,29.52-78.53,29.51-51.62,0-79.09-29.51t-27.47-84.48V797.56h52V949.42q0,34.55,13,50.5t41.59,16q28.21,0,41-16t12.81-50.5V797.56h52V949.42Q1573,1004.38,1545.72,1033.9Z" transform="translate(-132.53 -564.37)"/><path class="cls-3" d="M1677.82,1053.39q-24.25-10-38.48-29t-15.68-44.85h52.15a41.43,41.43,0,0,0,17.32,29.72q15.13,11.13,39.57,11.12,23,0,36.47-9.3t13.49-25.71q0-23.7-33.55-31.36l-52.51-11.3q-32.46-7.31-50-24.07t-17.51-43.4q0-23,12-40.48t34.46-27.35q22.42-9.85,52.33-9.85,44.49,0,72.57,21.34t31,59.62h-51.78q-3.66-37.92-51.06-37.93-21.89,0-34.64,8t-12.77,22.61q0,11.67,8.39,18.23T1715.93,900l50.69,11.3q69.64,15,69.65,69.29,0,25.53-12.76,44.31t-36.11,28.63q-23.34,9.84-54.33,9.84T1677.82,1053.39Z" transform="translate(-132.53 -564.37)"/><text x="-132.53" y="-564.37"/></svg>
