<svg xmlns="http://www.w3.org/2000/svg" width="374.514" height="332.695" viewBox="0 0 374.514 332.695">
  <g id="Group_11898" data-name="Group 11898" transform="translate(-884.744 -324.531)" opacity="0.75">
    <g id="Group_11897" data-name="Group 11897" transform="translate(86.744 -27.469)" opacity="0.68">
      <path id="data-collection-drive" d="M307.482,208.206a3.054,3.054,0,1,1,0-6.108h24.153a3.054,3.054,0,1,1,0,6.109Zm0-16.992a3.054,3.054,0,1,1,0-6.108H348.5a3.054,3.054,0,1,1,0,6.109Zm0-16.992a3.054,3.054,0,1,1,0-6.108h47.977a3.054,3.054,0,1,1,0,6.109Zm31.753-51.3a3.069,3.069,0,0,1,2.172.907l32.038,27.686a3.053,3.053,0,0,1,.936,1.448,5.316,5.316,0,0,1,.132,1.521v68.7a6.019,6.019,0,0,1-5.969,5.969H294.4a5.981,5.981,0,0,1-5.969-5.969V128.893a6.007,6.007,0,0,1,5.969-5.969h44.832Zm29.142,34.05-29.061.8a3.061,3.061,0,0,1-3.138-2.97l-.015-25.741h-41.6v93.965h73.813V156.974Zm-4.886-5.983-21.191-18.3v18.887l21.191-.585ZM19.055,208.206a3.054,3.054,0,1,1,0-6.109H43.208a3.054,3.054,0,1,1,0,6.109Zm0-16.992a3.054,3.054,0,1,1,0-6.109H60.069a3.054,3.054,0,1,1,0,6.108Zm0-16.992a3.054,3.054,0,1,1,0-6.109h47.97a3.054,3.054,0,1,1,0,6.108H19.055Zm33.918-50.391,32.046,27.686a3.033,3.033,0,0,1,.987,1.682,8.074,8.074,0,0,1,.073,1.463v68.524a6.021,6.021,0,0,1-5.962,5.969H5.969A5.994,5.994,0,0,1,0,223.187V128.893a6.019,6.019,0,0,1,5.969-5.969H49.74c.351,0,.71.015,1.061,0A3.069,3.069,0,0,1,52.973,123.831ZM79.95,156.974l-29.061.8a3.056,3.056,0,0,1-3.138-2.97l-.015-25.741H6.137v93.965H79.95V156.974Zm-4.894-5.983-21.191-18.3v18.887l21.191-.585ZM183.2,162.95a5.136,5.136,0,0,1-1.017-.863l-11.733-12.706a5.423,5.423,0,1,1,7.98-7.344l3.394,3.672V122.843a5.435,5.435,0,0,1,10.87,0v23.919l3.921-3.27a5.41,5.41,0,1,1,6.92,8.317l-13.379,11.162a5.415,5.415,0,0,1-6.956-.022ZM163.265,85.282a3.058,3.058,0,0,1,0-6.115h24.153a3.058,3.058,0,0,1,0,6.115Zm0-16.992a3.054,3.054,0,0,1,0-6.108h41.014a3.054,3.054,0,1,1,0,6.108Zm0-16.992a3.054,3.054,0,1,1,0-6.109h47.977a3.054,3.054,0,1,1,0,6.109ZM197.19.9l32.038,27.694a2.977,2.977,0,0,1,.988,1.66,5.078,5.078,0,0,1,.08,1.1v68.9a6.019,6.019,0,0,1-5.969,5.969H150.179a5.981,5.981,0,0,1-5.961-5.969V5.961a5.908,5.908,0,0,1,1.756-4.206A5.9,5.9,0,0,1,150.179,0h44.386l.227.007L195.018,0a3.063,3.063,0,0,1,2.172.9ZM224.16,34.05l-29.061.8a3.062,3.062,0,0,1-3.138-2.977L191.946,6.13h-41.6v93.965H224.16V34.05Zm-4.886-5.983L198.083,9.758V28.652l21.191-.585ZM107.717,289.253a5.61,5.61,0,0,1-.907,1.009L94.1,301.286a5.417,5.417,0,1,1-7.088-8.193l3.548-3.079a58.3,58.3,0,0,1-53.975-39.785,5.414,5.414,0,1,1,10.27-3.431,47.6,47.6,0,0,0,43.9,32.382l-2.319-2.633a5.424,5.424,0,1,1,8.141-7.168l11.162,12.676A5.423,5.423,0,0,1,107.717,289.253ZM267.7,290.263a5.61,5.61,0,0,1-.907-1.009,5.432,5.432,0,0,1-.022-7.2l11.162-12.684a5.424,5.424,0,1,1,8.141,7.168l-2.319,2.641a47.494,47.494,0,0,0,43.976-32.66,5.429,5.429,0,1,1,10.314,3.394,58.453,58.453,0,0,1-54.1,40.1l3.548,3.079a5.414,5.414,0,0,1-7.081,8.193L267.7,290.263Z" transform="translate(798 352)" fill="#05204a" fill-rule="evenodd"/>
    </g>
    <g id="folder-directory-files" transform="translate(998.281 518)" opacity="0.68">
      <path id="Path_15203" data-name="Path 15203" d="M2.977,45.722H8.4V33.893a2.975,2.975,0,0,1,2.987-2.975h5.279v-7.1a2.987,2.987,0,0,1,2.987-2.975H67.917a2.975,2.975,0,0,1,2.975,2.975v7.1h65.144a2.975,2.975,0,0,1,2.975,2.975V45.722h5.435a2.939,2.939,0,0,1,1.2.24,2.028,2.028,0,0,1,1.092.816,2.951,2.951,0,0,1,.708,1.92,2.8,2.8,0,0,1-.072.636L136.96,125.886c-.576,6.8-3.6,9.178-9.526,9.178H17.637c-6.538,0-8.89-2.963-9.6-9.274L0,49.009a3.035,3.035,0,0,1,.312-1.584,2.04,2.04,0,0,1,1.668-1.464,3.155,3.155,0,0,1,.684-.156h.312Z" transform="translate(0 4.162)" fill="#05204a"/>
      <path id="Path_15204" data-name="Path 15204" d="M9.06,33.008V45.58H134.117V33.008H69.561a3,3,0,0,1-2.987-2.987V22.93H17.7v7.09a2.987,2.987,0,0,1-2.975,2.987Z" transform="translate(1.811 4.579)" fill="#05204a"/>
      <path id="Path_15205" data-name="Path 15205" d="M23.3,47.625V17.141a4.259,4.259,0,0,1,4.271-4.271H53.809V47.661Z" transform="translate(4.655 2.57)" fill="#737373"/>
      <path id="Path_15206" data-name="Path 15206" d="M53.329,15.25H25.7V47.1H53.329V15.25Z" transform="translate(5.134 3.046)" fill="#d7d8dc"/>
      <path id="Path_15207" data-name="Path 15207" d="M36.178,25.88H51.595v3.875H36.178C33.779,29.755,33.863,25.88,36.178,25.88Zm0,11.529H51.595v3.875H36.154c-2.4,0-2.315-3.875,0-3.875Z" transform="translate(6.869 5.168)" fill="#737373"/>
      <path id="Path_15208" data-name="Path 15208" d="M46.29,50.2V4.367A4.379,4.379,0,0,1,50.669,0H95.13A2.4,2.4,0,0,1,97,.9L118.6,21.859a2.4,2.4,0,0,1,1.764,2.4V50.2Z" transform="translate(9.246 0)" fill="#737373"/>
      <path id="Path_15209" data-name="Path 15209" d="M116.851,49.512V24.175H97.1a2.459,2.459,0,0,1-2.4-2.459V2.52H48.78V49.512Z" transform="translate(9.743 0.503)" fill="#d7d8dc"/>
      <path id="Path_15210" data-name="Path 15210" d="M59.472,13.33H79.183c2.4,0,2.4,3.959,0,3.959H59.472c-2.4,0-2.4-3.959,0-3.959Zm0,23.61h35.6c2.4,0,2.4,3.959,0,3.959H59.46c-2.4,0-2.4-3.923,0-3.971Zm0-11.805H83.346c2.4,0,2.4,3.959,0,3.959H59.46c-2.4,0-2.4-3.959,0-3.959Z" transform="translate(11.516 2.662)" fill="#737373"/>
      <path id="Path_15211" data-name="Path 15211" d="M3.63,45.09,12.112,121.3c.2,1.968,1.488,3.923,3.6,3.923H127.644c2.183,0,3.383-2.076,3.6-4.007L142.136,45.09Z" transform="translate(0.726 9.005)" fill="#05204a"/>
    </g>
  </g>
</svg>
