<svg xmlns="http://www.w3.org/2000/svg" width="24" height="28" viewBox="0 0 24 28">
  <path id="pages" d="M18.285,25.928a.692.692,0,0,1,1.383,0v.857a1.184,1.184,0,0,1-.373.857h0a1.293,1.293,0,0,1-.9.358H1.278a1.3,1.3,0,0,1-.9-.358h0A1.18,1.18,0,0,1,0,26.785V5.255A1.182,1.182,0,0,1,.376,4.4l.055-.048a1.3,1.3,0,0,1,.847-.308h.876a.7.7,0,0,1,.633.317.632.632,0,0,1,0,.681.7.7,0,0,1-.633.317h-.77v21.33h16.9ZM8.852,19.493a.643.643,0,0,1-.581-.29.579.579,0,0,1,0-.625.643.643,0,0,1,.581-.29h6.141a.643.643,0,0,1,.581.29.579.579,0,0,1,0,.625.643.643,0,0,1-.581.29Zm0-3.694a.608.608,0,1,1,0-1.215h8.354a.6.6,0,1,1,0,1.208Zm0-3.7a.6.6,0,1,1,0-1.208H19.658a.6.6,0,1,1,0,1.208ZM16.986.239l6.5,6.522A.667.667,0,0,1,24,7.4V22.747a1.246,1.246,0,0,1-1.273,1.215H5.61a1.3,1.3,0,0,1-.9-.355h0a1.182,1.182,0,0,1-.376-.859V1.217A1.18,1.18,0,0,1,4.711.358L4.766.31A1.292,1.292,0,0,1,5.61,0H16.443a.706.706,0,0,1,.543.239ZM22.617,8.2H16.443a.676.676,0,0,1-.691-.659V1.317H5.715v21.33h16.9ZM21.7,6.886,17.134,2.3V6.88Z" transform="translate(0 0)" fill="#3f3f3f"/>
</svg>
