<svg xmlns="http://www.w3.org/2000/svg" width="142" height="58.333" viewBox="0 0 142 58.333">
  <g id="Group_12083" data-name="Group 12083" transform="translate(-1760.063 -1000)">
    <g id="Group_11955" data-name="Group 11955" transform="translate(170.207 -12998.697)">
      <path id="Path_15974" data-name="Path 15974" d="M22.421,17.062H19.95a.2.2,0,0,0-.181.211.212.212,0,0,0,.048.149.183.183,0,0,0,.132.065h2.471a.2.2,0,0,0,.181-.214.209.209,0,0,0-.048-.147A.183.183,0,0,0,22.421,17.062Zm0,0" transform="translate(1583.406 14034.95)" fill="#fff"/>
      <path id="Path_15975" data-name="Path 15975" d="M22.411,17.859H19.94a.2.2,0,0,0-.2.211.207.207,0,0,0,.2.214h.267l.267.567s.094.172.2.206a1.879,1.879,0,0,0,1.059,0,.386.386,0,0,0,.2-.214l.283-.55h.2a.211.211,0,0,0,.181-.189.214.214,0,0,0-.038-.166A.187.187,0,0,0,22.411,17.859Zm0,0" transform="translate(1583.416 14034.728)" fill="#fff"/>
      <path id="Path_15976" data-name="Path 15976" d="M22.421,16.207H19.95a.2.2,0,0,0-.135.073.228.228,0,0,0-.046.149.2.2,0,0,0,.181.214h2.471a.215.215,0,0,0,0-.429Zm0,0" transform="translate(1583.406 14035.188)" fill="#fff"/>
      <path id="Path_15977" data-name="Path 15977" d="M28,13.226l-.625-.319a.25.25,0,0,0-.353.1.3.3,0,0,0,.1.378l.62.327A.259.259,0,0,0,28.1,13.6a.3.3,0,0,0-.094-.378Zm0,0" transform="translate(1581.167 14036.115)" fill="#fff"/>
      <path id="Path_15978" data-name="Path 15978" d="M16.1,13.007a.265.265,0,0,0-.358-.1l-.62.327a.256.256,0,0,0-.127.223.282.282,0,0,0,0,.164.261.261,0,0,0,.361.09l.62-.327a.278.278,0,0,0,.094-.369Zm0,0" transform="translate(1584.892 14036.114)" fill="#fff"/>
      <path id="Path_15979" data-name="Path 15979" d="M28.361,8.583l-.69.149a.226.226,0,0,0-.14.107.206.206,0,0,0,0,.082.27.27,0,0,0,0,.147.217.217,0,0,0,.218.2h.1l.682-.164C28.832,9.037,28.689,8.51,28.361,8.583Zm0,0" transform="translate(1581.002 14037.312)" fill="#fff"/>
      <path id="Path_15970" data-name="Path 15970" d="M15.6,9.045a.239.239,0,0,0-.024-.192.212.212,0,0,0-.156-.1l-.682-.166a.248.248,0,0,0-.2.028.264.264,0,0,0-.121.169.283.283,0,0,0,.181.338l.682.147a.249.249,0,0,0,.208-.037A.27.27,0,0,0,15.6,9.045Zm0,0" transform="translate(1585.07 14037.312)" fill="#fff"/>
      <path id="Path_15980" data-name="Path 15980" d="M26.205,4.587a.255.255,0,0,0-.369,0l-.439.575a.293.293,0,0,0,0,.386.258.258,0,0,0,.353,0l.439-.575A.29.29,0,0,0,26.205,4.587Zm0,0" transform="translate(1581.684 14038.442)" fill="#fff"/>
      <path id="Path_15971" data-name="Path 15971" d="M17.8,5.162l-.439-.575a.255.255,0,0,0-.369,0,.275.275,0,0,0-.081.195.268.268,0,0,0,.081.192l.439.575a.233.233,0,0,0,.2.073A.251.251,0,0,0,17.8,5.54a.2.2,0,0,0,.07-.147A.35.35,0,0,0,17.8,5.162Zm0,0" transform="translate(1584.292 14038.442)" fill="#fff"/>
      <path id="Path_15981" data-name="Path 15981" d="M21.7,2.922a.275.275,0,0,0-.267.271v.733a.276.276,0,0,0,.259.279.222.222,0,0,0,.172-.068.262.262,0,0,0,.094-.2V3.2A.274.274,0,0,0,21.7,2.922Zm0,0" transform="translate(1582.892 14038.885)" fill="#fff"/>
      <path id="Path_15982" data-name="Path 15982" d="M22.961,10.952a.143.143,0,0,0,0-.124h-.046c-.048,0-.086.056-.119.107a.422.422,0,0,0,0,.245A.507.507,0,0,0,22.961,10.952Zm0,0" transform="translate(1582.473 14036.685)" fill="#fff"/>
      <path id="Path_15983" data-name="Path 15983" d="M21.414,10.8a.183.183,0,0,0,0-.141h-.057a.256.256,0,0,0-.111.124.413.413,0,0,0,0,.279A.754.754,0,0,0,21.414,10.8Zm0,0" transform="translate(1582.956 14036.731)" fill="#fff"/>
      <path id="Path_15984" data-name="Path 15984" d="M20.363,12.3a16.537,16.537,0,0,1,.884,2.568h.377a18.725,18.725,0,0,1,.784-2.461,1.128,1.128,0,0,1-.542-.632,1.078,1.078,0,0,1-.525.082,1.013,1.013,0,0,1-.391-.116A2.212,2.212,0,0,1,20.363,12.3Zm0,0" transform="translate(1583.222 14036.431)" fill="#fff"/>
      <path id="Path_15985" data-name="Path 15985" d="M19.51,11.8a.065.065,0,0,0-.07.039.177.177,0,0,0,.038.141.363.363,0,0,0,.259.147A.758.758,0,0,0,19.675,12,.221.221,0,0,0,19.51,11.8Zm0,0" transform="translate(1583.509 14036.415)" fill="#fff"/>
      <path id="Path_15986" data-name="Path 15986" d="M24.077,11.9l-.094.107-.108.237a.28.28,0,0,0,.189-.09A.172.172,0,0,0,24.109,12,.129.129,0,0,0,24.077,11.9Zm0,0" transform="translate(1582.133 14036.387)" fill="#fff"/>
      <path id="Path_15972" data-name="Path 15972" d="M20.306,5.562A3.368,3.368,0,0,0,17.051,8.3a3.535,3.535,0,0,0,1.859,3.916V12.9a.2.2,0,0,0,.2.206h.838a16.724,16.724,0,0,0-.87-2.464.505.505,0,0,1-.485-.138.5.5,0,0,1-.172-.386.245.245,0,0,1,.124-.214.3.3,0,0,1,.181-.056.516.516,0,0,1,.4.319,1.447,1.447,0,0,0,.078.175,1.76,1.76,0,0,0,.542-.468.743.743,0,0,1-.048-.265.775.775,0,0,1,.164-.5.285.285,0,0,1,.189-.121.267.267,0,0,1,.213.056.282.282,0,0,1,.124.211.99.99,0,0,1-.243.533h.1a.827.827,0,0,0,.509,0h.078a.447.447,0,0,1,0-.147.54.54,0,0,1,.181-.5.3.3,0,0,1,.2-.073.227.227,0,0,1,.172.073.375.375,0,0,1,.1.288.666.666,0,0,1-.283.429l-.07.048a.857.857,0,0,0,.431.541,2.833,2.833,0,0,1,.148-.319s.156-.223.3-.223a.183.183,0,0,1,.14.059.458.458,0,0,1,.086.482.466.466,0,0,1-.48.313h-.07a17.165,17.165,0,0,0-.784,2.365h.7a.2.2,0,0,0,.2-.206v-.7A3.535,3.535,0,0,0,23.655,8.3a3.366,3.366,0,0,0-3.263-2.738Zm0,0" transform="translate(1584.274 14038.149)" fill="#fff"/>
      <path id="Path_15973" data-name="Path 15973" d="M8.5,2.981a.852.852,0,0,1-.234.288.471.471,0,0,1-.307.107.789.789,0,0,1-.439-.164l-.531-.33a4.89,4.89,0,0,0-.693-.327,3.115,3.115,0,0,0-.978-.141,2.863,2.863,0,0,0-.887.141,1.885,1.885,0,0,0-.644.361,1.386,1.386,0,0,0-.383.541,1.862,1.862,0,0,0-.127.7,1.282,1.282,0,0,0,.259.823,2.293,2.293,0,0,0,.682.55,7.91,7.91,0,0,0,.949.386c.369.113.738.245,1.124.383A9.944,9.944,0,0,1,7.4,6.764a3.822,3.822,0,0,1,.994.716,2.99,2.99,0,0,1,.69.984,3.635,3.635,0,0,1,.251,1.477,5.128,5.128,0,0,1-.3,1.748,4.035,4.035,0,0,1-.895,1.39,4.1,4.1,0,0,1-1.412.967,5.049,5.049,0,0,1-1.935.344,6,6,0,0,1-1.231-.121A6.889,6.889,0,0,1,2.4,13.9a6.053,6.053,0,0,1-1.051-.567,4.94,4.94,0,0,1-.884-.764l.711-1.224a.718.718,0,0,1,.245-.22.513.513,0,0,1,.3-.093.882.882,0,0,1,.485.189c.181.133.385.279.628.437a5,5,0,0,0,.854.434,3.083,3.083,0,0,0,1.161.2,2.278,2.278,0,0,0,1.622-.524,1.908,1.908,0,0,0,.566-1.486A1.415,1.415,0,0,0,6.78,9.4,2.036,2.036,0,0,0,6.1,8.825a5.4,5.4,0,0,0-.935-.4L4.021,8.078a9.506,9.506,0,0,1-1.108-.46,3.645,3.645,0,0,1-.97-.688,3.16,3.16,0,0,1-.7-1.094A4.3,4.3,0,0,1,.992,4.269a3.81,3.81,0,0,1,.291-1.46,3.671,3.671,0,0,1,.833-1.266A4.1,4.1,0,0,1,3.455.658,4.77,4.77,0,0,1,5.29.328a5.842,5.842,0,0,1,2.14.378A4.652,4.652,0,0,1,9.084,1.774Zm0,0" transform="translate(1589.395 14039.606)" fill="#fff"/>
      <path id="Path_15987" data-name="Path 15987" d="M33.265,0V14.136H31.023V0Zm0,0" transform="translate(1579.916 14039.697)" fill="#fff"/>
      <path id="Path_15988" data-name="Path 15988" d="M45.51,6.064,40.428,18.492a.688.688,0,0,1-.784.51h-1.63l1.749-3.916-3.77-9.03h1.967a.59.59,0,0,1,.415.133.911.911,0,0,1,.226.3l1.978,5.041a4.8,4.8,0,0,1,.164.519c.046.164.094.344.132.516l.164-.524c.057-.172.119-.347.181-.519L43.1,6.476a.658.658,0,0,1,.612-.437Zm0,0" transform="translate(1578.375 14038.017)" fill="#fff"/>
      <path id="Path_15989" data-name="Path 15989" d="M60.436,14.136H58.194v-8h-4.32v5.286a1.064,1.064,0,0,0,.218.716.777.777,0,0,0,.579.254.889.889,0,0,0,.353-.082,1.483,1.483,0,0,0,.245-.107l.186-.107a.321.321,0,0,1,.167-.048.245.245,0,0,1,.156.048.532.532,0,0,1,.108.214l.676,1.142a3.434,3.434,0,0,1-1.129.648,4.19,4.19,0,0,1-1.318.211,2.4,2.4,0,0,1-1.867-.713,2.863,2.863,0,0,1-.649-1.988V6.14h-.919a.438.438,0,0,1-.313-.124.506.506,0,0,1-.127-.369V4.711l1.5-.262.472-2.65a.531.531,0,0,1,.172-.3.489.489,0,0,1,.369-.107h1.159v3.07h6.524ZM60.829,1.5a1.452,1.452,0,0,1-.119.575,1.509,1.509,0,0,1-.313.468,1.355,1.355,0,0,1-.463.319,1.358,1.358,0,0,1-.566.124,1.274,1.274,0,0,1-.547-.124,1.427,1.427,0,0,1-.439-.319,1.479,1.479,0,0,1-.307-.468,1.4,1.4,0,0,1-.116-.575,1.444,1.444,0,0,1,.116-.584,1.517,1.517,0,0,1,.307-.476,1.454,1.454,0,0,1,.439-.327A1.354,1.354,0,0,1,59.369,0a1.506,1.506,0,0,1,.566.116A1.379,1.379,0,0,1,60.4.443a1.541,1.541,0,0,1,.431,1.06Zm0,0" transform="translate(1573.955 14039.697)" fill="#fff"/>
      <path id="Path_15990" data-name="Path 15990" d="M74.789,8.074a1.321,1.321,0,0,1-.2.214.451.451,0,0,1-.275.073.6.6,0,0,1-.337-.116L73.589,8a2.973,2.973,0,0,0-.534-.248,2.388,2.388,0,0,0-.784-.107,2.272,2.272,0,0,0-1.035.223,1.953,1.953,0,0,0-.784.64,2.885,2.885,0,0,0-.439,1.018,5.731,5.731,0,0,0-.11,1.339,5.336,5.336,0,0,0,.164,1.387,3.06,3.06,0,0,0,.455,1.026,1.957,1.957,0,0,0,.73.623,2.044,2.044,0,0,0,.965.214,2.313,2.313,0,0,0,.862-.133,3.236,3.236,0,0,0,.555-.3l.4-.3a.542.542,0,0,1,.375-.141.469.469,0,0,1,.41.214l.641.82a4.111,4.111,0,0,1-.784.764,4.277,4.277,0,0,1-.9.493,4.455,4.455,0,0,1-.965.262,6.839,6.839,0,0,1-.989.073,4.03,4.03,0,0,1-1.638-.279,3.785,3.785,0,0,1-1.334-.984,4.642,4.642,0,0,1-.9-1.585,6.374,6.374,0,0,1-.331-2.134,6.507,6.507,0,0,1,.291-1.988,4.412,4.412,0,0,1,.87-1.6,3.872,3.872,0,0,1,1.412-1.052,4.668,4.668,0,0,1,1.943-.383A4.238,4.238,0,0,1,75.392,7.22Zm0,0" transform="translate(1568.565 14038.067)" fill="#fff"/>
      <path id="Path_15991" data-name="Path 15991" d="M86.427,7.9a.56.56,0,0,1-.189.211.5.5,0,0,1-.251.068.811.811,0,0,1-.353-.1L85.2,7.868a5.851,5.851,0,0,0-.558-.214,2.94,2.94,0,0,0-.784-.09,1.641,1.641,0,0,0-1.035.3.921.921,0,0,0-.377.764.769.769,0,0,0,.2.533,1.618,1.618,0,0,0,.517.369,5.2,5.2,0,0,0,.808.3c.275.082.55.172.83.279a8.256,8.256,0,0,1,.833.344,3,3,0,0,1,.728.493,2.409,2.409,0,0,1,.517.722,2.28,2.28,0,0,1,.2,1,3.3,3.3,0,0,1-.283,1.266,2.827,2.827,0,0,1-.711,1.035,3.272,3.272,0,0,1-1.169.671,4.943,4.943,0,0,1-1.568.24,4.582,4.582,0,0,1-.94-.09,5.04,5.04,0,0,1-.878-.248,5.218,5.218,0,0,1-.784-.383,3.5,3.5,0,0,1-.628-.476l.517-.888a.678.678,0,0,1,.237-.254.769.769,0,0,1,.345-.082.679.679,0,0,1,.391.124l.431.262a3.677,3.677,0,0,0,.582.271,2.48,2.48,0,0,0,.838.124,2.15,2.15,0,0,0,.682-.1,1.473,1.473,0,0,0,.48-.265.926.926,0,0,0,.264-.378,1,1,0,0,0,.086-.443.836.836,0,0,0-.194-.558,1.6,1.6,0,0,0-.517-.378,5.69,5.69,0,0,0-.73-.3c-.275-.082-.558-.172-.846-.279a7.184,7.184,0,0,1-.846-.352,2.974,2.974,0,0,1-.73-.516,2.247,2.247,0,0,1-.517-.772,2.73,2.73,0,0,1-.2-1.1,2.8,2.8,0,0,1,.229-1.142,2.526,2.526,0,0,1,.666-.944,3.15,3.15,0,0,1,1.1-.648A4.315,4.315,0,0,1,83.9,5.824a4.445,4.445,0,0,1,1.749.335,3.99,3.99,0,0,1,1.315.871Zm0,0" transform="translate(1564.69 14038.077)" fill="#fff"/>
      <path id="Path_15992" data-name="Path 15992" d="M103.77.535a7.207,7.207,0,0,1,2.282.327,4.347,4.347,0,0,1,1.569.905,3.587,3.587,0,0,1,.949,1.387,4.98,4.98,0,0,1,.307,1.765,5.087,5.087,0,0,1-.324,1.8,3.677,3.677,0,0,1-.949,1.429,4.328,4.328,0,0,1-1.568.936,6.88,6.88,0,0,1-2.242.33h-1.843v4.844H99.5V.535Zm0,6.913a3.641,3.641,0,0,0,1.178-.175,2.208,2.208,0,0,0,.83-.507,2.057,2.057,0,0,0,.5-.82,3.17,3.17,0,0,0,.178-1.026,2.78,2.78,0,0,0-.164-1,1.931,1.931,0,0,0-.493-.761,2.144,2.144,0,0,0-.784-.476,3.589,3.589,0,0,0-1.182-.172h-1.876V7.439Zm0,0" transform="translate(1558.676 14039.548)" fill="#fff"/>
      <path id="Path_15993" data-name="Path 15993" d="M114.361,7.369a5.354,5.354,0,0,1,3.864-1.534,3.56,3.56,0,0,1,1.46.279,3.08,3.08,0,0,1,1.089.82,3.358,3.358,0,0,1,.682,1.19,5.013,5.013,0,0,1,.229,1.52V15.81h-1.022a1,1,0,0,1-.485-.1.738.738,0,0,1-.275-.412l-.2-.7c-.234.22-.468.409-.69.581a4.036,4.036,0,0,1-.7.42,3.485,3.485,0,0,1-.784.262,4.015,4.015,0,0,1-.916.09,3.343,3.343,0,0,1-1.091-.164,2.336,2.336,0,0,1-.862-.5,2.19,2.19,0,0,1-.564-.82,3.049,3.049,0,0,1-.2-1.15,2.331,2.331,0,0,1,.119-.73,2.1,2.1,0,0,1,.383-.7,3.154,3.154,0,0,1,.7-.632,4.145,4.145,0,0,1,1.051-.51,8.3,8.3,0,0,1,1.445-.361,13.663,13.663,0,0,1,1.889-.163V9.653a2.2,2.2,0,0,0-.393-1.463,1.44,1.44,0,0,0-1.121-.507,2.512,2.512,0,0,0-.9.133,4.1,4.1,0,0,0-.636.293l-.493.3a.935.935,0,0,1-.5.133.612.612,0,0,1-.4-.133.9.9,0,0,1-.259-.3Zm5.137,4.237a10.94,10.94,0,0,0-1.631.172,4.045,4.045,0,0,0-1.066.327,1.407,1.407,0,0,0-.574.468,1.067,1.067,0,0,0-.172.575,1.055,1.055,0,0,0,.353.888,1.432,1.432,0,0,0,.911.262,2.532,2.532,0,0,0,1.191-.254,3.758,3.758,0,0,0,.989-.823Zm0,0" transform="translate(1554.209 14038.074)" fill="#fff"/>
      <path id="Path_15994" data-name="Path 15994" d="M130.348,7.7a4.361,4.361,0,0,1,1.035-1.373,2.158,2.158,0,0,1,1.42-.5,1.662,1.662,0,0,1,1.035.3l-.14,1.756a.438.438,0,0,1-.135.237.34.34,0,0,1-.235.073,2.147,2.147,0,0,1-.4-.048A2.963,2.963,0,0,0,132.4,8.1a1.873,1.873,0,0,0-.657.107,1.812,1.812,0,0,0-.525.33,2.3,2.3,0,0,0-.407.516,4.957,4.957,0,0,0-.329.7v6.008h-2.245V6h1.318a.749.749,0,0,1,.48.124.858.858,0,0,1,.18.468Zm0,0" transform="translate(1549.764 14038.077)" fill="#fff"/>
      <path id="Path_15995" data-name="Path 15995" d="M140.786,14.823a2.415,2.415,0,0,1-1.867-.716,2.856,2.856,0,0,1-.642-1.985V6.678h-.956a.426.426,0,0,1-.308-.124.491.491,0,0,1-.123-.369V5.249L138.434,5l.469-2.659a.5.5,0,0,1,.172-.3.467.467,0,0,1,.323-.107h1.167V5h3.991V6.644h-3.991v5.289a1.1,1.1,0,0,0,.212.713.765.765,0,0,0,.588.254.846.846,0,0,0,.345-.056,1.043,1.043,0,0,0,.242-.107l.189-.107a.317.317,0,0,1,.164-.048.262.262,0,0,1,.164.048.712.712,0,0,1,.135.155l.673,1.142a3.338,3.338,0,0,1-1.129.648A4.184,4.184,0,0,1,140.786,14.823Zm0,0" transform="translate(1547.081 14039.159)" fill="#fff"/>
      <path id="Path_15996" data-name="Path 15996" d="M150.083,7.212l.094-.155a1.874,1.874,0,0,1,.353-.395,2.877,2.877,0,0,1,.666-.426,3.948,3.948,0,0,1,.784-.279,3.527,3.527,0,0,1,.824-.1,3.173,3.173,0,0,1,1.356.271,2.727,2.727,0,0,1,.989.761,3.463,3.463,0,0,1,.6,1.167,5.237,5.237,0,0,1,.194,1.5v6.205H153.7V9.561a2.179,2.179,0,0,0-.39-1.387,1.423,1.423,0,0,0-1.186-.485,2.27,2.27,0,0,0-1.089.271,3.794,3.794,0,0,0-.965.756v7.051h-2.242V6.1h1.4a.869.869,0,0,1,.846.888Zm0,0" transform="translate(1543.689 14038.067)" fill="#fff"/>
      <path id="Path_15997" data-name="Path 15997" d="M164.19,11.165a5.041,5.041,0,0,0,.251,1.3,2.71,2.71,0,0,0,.533.9,2.042,2.042,0,0,0,.784.533,2.7,2.7,0,0,0,.989.172,2.879,2.879,0,0,0,.941-.13,4.452,4.452,0,0,0,.69-.3l.517-.3a.81.81,0,0,1,.431-.133.457.457,0,0,1,.415.214l.653.82a3.95,3.95,0,0,1-.841.764,4.488,4.488,0,0,1-.965.493,5.132,5.132,0,0,1-1.027.262,7.131,7.131,0,0,1-1.011.073,4.863,4.863,0,0,1-1.811-.336,4.028,4.028,0,0,1-1.452-1,4.719,4.719,0,0,1-.97-1.644,6.532,6.532,0,0,1-.353-2.258,5.584,5.584,0,0,1,.3-1.872,4.669,4.669,0,0,1,.886-1.534,4,4,0,0,1,1.412-1.026,4.428,4.428,0,0,1,1.873-.386,4.316,4.316,0,0,1,1.622.3,3.5,3.5,0,0,1,1.28.82,3.988,3.988,0,0,1,.846,1.387,5.629,5.629,0,0,1,.3,1.881,1.486,1.486,0,0,1-.11.713.435.435,0,0,1-.415.189Zm4.274-1.418a3.1,3.1,0,0,0-.119-.863,2.2,2.2,0,0,0-.369-.708,1.687,1.687,0,0,0-.626-.474,1.94,1.94,0,0,0-.87-.18,2.016,2.016,0,0,0-1.531.581,2.914,2.914,0,0,0-.714,1.644Zm0,0" transform="translate(1539.303 14038.087)" fill="#fff"/>
      <path id="Path_15998" data-name="Path 15998" d="M178.86,7.7a4.116,4.116,0,0,1,1.035-1.373,2.124,2.124,0,0,1,1.42-.5,1.663,1.663,0,0,1,1.035.3L182.2,7.876a.391.391,0,0,1-.126.237.355.355,0,0,1-.235.073,2.141,2.141,0,0,1-.4-.048,2.962,2.962,0,0,0-.526-.042,1.6,1.6,0,0,0-1.183.437,2.339,2.339,0,0,0-.407.516,5.381,5.381,0,0,0-.331.7v6.008H176.75V6h1.309a.752.752,0,0,1,.488.124.854.854,0,0,1,.181.468Zm0,0" transform="translate(1534.717 14038.077)" fill="#fff"/>
      <path id="Path_15999" data-name="Path 15999" d="M191.965,7.911a.537.537,0,0,1-.2.211.459.459,0,0,1-.25.068.81.81,0,0,1-.353-.1l-.431-.214a4.766,4.766,0,0,0-.558-.214,2.811,2.811,0,0,0-.735-.09,1.648,1.648,0,0,0-1.043.3.924.924,0,0,0-.377.764.758.758,0,0,0,.2.533,1.821,1.821,0,0,0,.517.369,5.663,5.663,0,0,0,.73.3c.272.082.547.172.83.279a7.869,7.869,0,0,1,.83.344,2.877,2.877,0,0,1,.731.493,2.251,2.251,0,0,1,.714,1.723,3.487,3.487,0,0,1-.235,1.3A2.9,2.9,0,0,1,191.62,15a3.345,3.345,0,0,1-1.169.674,5.014,5.014,0,0,1-1.606.24,4.561,4.561,0,0,1-.935-.09,5.446,5.446,0,0,1-.884-.248,4.9,4.9,0,0,1-.784-.386,3.212,3.212,0,0,1-.636-.476l.517-.885a.6.6,0,0,1,.579-.335.78.78,0,0,1,.4.121c.124.082.267.172.431.262a3.466,3.466,0,0,0,.571.273,2.505,2.505,0,0,0,.841.121,2.129,2.129,0,0,0,.69-.1,1.467,1.467,0,0,0,.469-.262.962.962,0,0,0,.275-.378,1.186,1.186,0,0,0,.086-.443.85.85,0,0,0-.2-.558,1.741,1.741,0,0,0-.517-.378,5.913,5.913,0,0,0-.735-.3c-.275-.082-.558-.172-.849-.279a8.758,8.758,0,0,1-.838-.352,2.952,2.952,0,0,1-.735-.516,2.548,2.548,0,0,1-.517-.772,2.743,2.743,0,0,1-.2-1.1,2.937,2.937,0,0,1,.226-1.142,2.622,2.622,0,0,1,.668-.944,3.151,3.151,0,0,1,1.1-.648,4.31,4.31,0,0,1,1.52-.245,4.477,4.477,0,0,1,1.757.335,3.83,3.83,0,0,1,1.309.871Zm0,0" transform="translate(1531.971 14038.067)" fill="#fff"/>
      <path id="Path_16000" data-name="Path 16000" d="M196.028,3.325h-.579V3.094h1.412v.231h-.582V5.09h-.25Zm0,0" transform="translate(1528.917 14038.836)" fill="#fff"/>
      <path id="Path_16001" data-name="Path 16001" d="M199.4,4.212v-.82c-.065.228-.143.476-.246.756l-.337.967h-.181l-.352-.975c-.086-.279-.165-.541-.219-.772v.88l-.054.82h-.237l.135-2h.312l.328.97a6.384,6.384,0,0,1,.189.674c.057-.206.119-.429.2-.674l.337-.97h.313l.065,2.013h-.237Zm0,0" transform="translate(1528.195 14038.843)" fill="#fff"/>
    </g>
    <text id="Powered_by" data-name="Powered by" transform="translate(1760.063 1026)" fill="#fff" font-size="24" font-family="OpenSans-Bold, Open Sans" font-weight="700" letter-spacing="0.008em"><tspan x="0" y="0">Powered by</tspan></text>
  </g>
</svg>
