<svg xmlns="http://www.w3.org/2000/svg" width="24" height="28" viewBox="0 0 24 28">
  <g id="sql-file" transform="translate(-0.01)">
    <path id="Path_1304" data-name="Path 1304" d="M5.292,12.987H18.8V8.508H14.5a2.15,2.15,0,0,1-1.378-.592A2.253,2.253,0,0,1,12.64,6.51V1.741H1.7a.117.117,0,0,0-.085.041.1.1,0,0,0-.04.1V26.132a.16.16,0,0,0,.037.093.1.1,0,0,0,.085.041H18.674c.037,0,.035-.021.056-.041s.069-.064.069-.093V23.589H5.292a1.66,1.66,0,0,1-1.574-1.723V14.707a1.657,1.657,0,0,1,1.574-1.72Zm.872,6.138,1.482-.1a1.3,1.3,0,0,0,.2.6.8.8,0,0,0,.689.335.72.72,0,0,0,.514-.171A.525.525,0,0,0,9.057,19a1.894,1.894,0,0,0-.8-.321,3.25,3.25,0,0,1-1.464-.67,1.4,1.4,0,0,1-.441-1.066,1.541,1.541,0,0,1,.225-.8,1.52,1.52,0,0,1,.679-.595A2.938,2.938,0,0,1,8.5,15.332a2.378,2.378,0,0,1,1.476.394,1.749,1.749,0,0,1,.6,1.255l-1.468.1a.909.909,0,0,0-.246-.547.741.741,0,0,0-.518-.171.6.6,0,0,0-.41.125.4.4,0,0,0-.137.308.321.321,0,0,0,.112.237,1.17,1.17,0,0,0,.521.2,6.037,6.037,0,0,1,1.464.49,1.578,1.578,0,0,1,.643.613,1.674,1.674,0,0,1,.2.818,1.873,1.873,0,0,1-.269.98,1.729,1.729,0,0,1-.752.681,2.785,2.785,0,0,1-1.214.232A2.368,2.368,0,0,1,6.723,20.5a2.248,2.248,0,0,1-.558-1.378Zm9.746,1.018q.29.222.381.28a4.068,4.068,0,0,0,.36.194l-.431.957a6.093,6.093,0,0,1-1.1-.772,3.006,3.006,0,0,1-1.3.246,2.475,2.475,0,0,1-1.818-.656,2.924,2.924,0,0,1-.787-2.18,3.046,3.046,0,0,1,.687-2.121,2.465,2.465,0,0,1,1.922-.756,2.512,2.512,0,0,1,1.94.738,3,3,0,0,1,.685,2.112,3.191,3.191,0,0,1-.55,1.959Zm-1.2-.877a2.478,2.478,0,0,0,.187-1.091,1.943,1.943,0,0,0-.285-1.194.955.955,0,0,0-.785-.358.92.92,0,0,0-.756.365,1.828,1.828,0,0,0-.289,1.142,2.12,2.12,0,0,0,.283,1.269.929.929,0,0,0,.777.365,1.266,1.266,0,0,0,.3-.034,1.9,1.9,0,0,0-.623-.392l.244-.613a1.161,1.161,0,0,1,.323.1,3.847,3.847,0,0,1,.452.317c.054.041.11.082.173.123ZM17.2,15.427h1.559v4.167H21.2v1.358h-4V15.427Zm3.173-2.44h2.067A1.659,1.659,0,0,1,24.01,14.71v7.159a1.66,1.66,0,0,1-1.574,1.723H20.368v3.087a1.382,1.382,0,0,1-.354.934,1.146,1.146,0,0,1-.854.387H1.218a1.146,1.146,0,0,1-.854-.387,1.372,1.372,0,0,1-.354-.934V1.333A1.382,1.382,0,0,1,.364.4,1.16,1.16,0,0,1,1.218.011H13.444A.216.216,0,0,1,13.529,0a.541.541,0,0,1,.364.157h.019A.192.192,0,0,1,13.96.2L20.2,7.116a.673.673,0,0,1,.183.451.933.933,0,0,1-.019.148v5.272Zm-6.3-6.614V2.037l4.462,4.944H14.622a.561.561,0,0,1-.394-.178.65.65,0,0,1-.162-.431Z" fill-rule="evenodd"/>
  </g>
</svg>
