<svg id="table" xmlns="http://www.w3.org/2000/svg" width="20.773" height="17.331" viewBox="0 0 20.773 17.331">
  <path id="Path_17677" data-name="Path 17677" d="M.916,0h18.94a.919.919,0,0,1,.916.916v15.5a.919.919,0,0,1-.916.916H.916A.919.919,0,0,1,0,16.415V.916A.919.919,0,0,1,.916,0Zm.517,3.986H6.441a.251.251,0,0,1,.25.25v1.65a.252.252,0,0,1-.25.25H1.434a.252.252,0,0,1-.25-.25V4.236a.25.25,0,0,1,.25-.25Zm12.9,9.935h5.009a.251.251,0,0,1,.25.25v1.65a.252.252,0,0,1-.25.25H14.332a.252.252,0,0,1-.25-.25v-1.65a.25.25,0,0,1,.25-.25Zm-6.42,0h4.95a.251.251,0,0,1,.25.25v1.65a.252.252,0,0,1-.25.25H7.911a.252.252,0,0,1-.25-.25v-1.65a.25.25,0,0,1,.25-.25Zm-6.478,0H6.441a.251.251,0,0,1,.25.25v1.65a.252.252,0,0,1-.25.25H1.434a.252.252,0,0,1-.25-.25v-1.65a.25.25,0,0,1,.25-.25Zm12.9-3.312h5.009a.251.251,0,0,1,.25.25v1.65a.252.252,0,0,1-.25.25H14.332a.252.252,0,0,1-.25-.25V10.86a.25.25,0,0,1,.25-.25Zm-6.42,0h4.95a.251.251,0,0,1,.25.25v1.65a.252.252,0,0,1-.25.25H7.911a.252.252,0,0,1-.25-.25V10.86a.25.25,0,0,1,.25-.25Zm-6.478,0H6.441a.251.251,0,0,1,.25.25v1.65a.252.252,0,0,1-.25.25H1.434a.252.252,0,0,1-.25-.25V10.86a.25.25,0,0,1,.25-.25ZM14.332,7.3h5.009a.251.251,0,0,1,.25.25V9.2a.252.252,0,0,1-.25.25H14.332a.252.252,0,0,1-.25-.25V7.548a.25.25,0,0,1,.25-.25Zm-6.42,0h4.95a.251.251,0,0,1,.25.25V9.2a.252.252,0,0,1-.25.25H7.911a.252.252,0,0,1-.25-.25V7.548a.25.25,0,0,1,.25-.25Zm-6.478,0H6.441a.251.251,0,0,1,.25.25V9.2a.252.252,0,0,1-.25.25H1.434a.252.252,0,0,1-.25-.25V7.548a.25.25,0,0,1,.25-.25Zm12.9-3.312h5.009a.251.251,0,0,1,.25.25v1.65a.252.252,0,0,1-.25.25H14.332a.252.252,0,0,1-.25-.25V4.236a.25.25,0,0,1,.25-.25Zm-6.42,0h4.95a.251.251,0,0,1,.25.25v1.65a.252.252,0,0,1-.25.25H7.911a.252.252,0,0,1-.25-.25V4.236a.25.25,0,0,1,.25-.25Z" fill="#0c0d0d" fill-rule="evenodd"/>
</svg>
