<svg xmlns="http://www.w3.org/2000/svg" width="20.99" height="20.874" viewBox="0 0 20.99 20.874">
  <path id="overview" d="M15.625,16.1a1.731,1.731,0,1,1-1.221.51,1.731,1.731,0,0,1,1.221-.51Zm-6.71,2.931H1.328A1.337,1.337,0,0,1,0,17.7V1.328A1.333,1.333,0,0,1,1.328,0H17.449a1.326,1.326,0,0,1,.936.391l.044.049a1.326,1.326,0,0,1,.34.888V13.9q-.255-.125-.51-.229a7.584,7.584,0,0,0-.754-.25V1.3l-.012-.012a.056.056,0,0,0-.037-.019H1.328a.058.058,0,0,0-.056.056V17.7a.066.066,0,0,0,.056.056H8.557v.075a1.894,1.894,0,0,0,.363,1.2Zm1.427-1.444a9.172,9.172,0,0,1,.876-.924A6.666,6.666,0,0,1,15.41,14.8a7.079,7.079,0,0,1,4.424,1.782A10.347,10.347,0,0,1,20.9,17.6a.34.34,0,0,1,.019.43,6.879,6.879,0,0,1-1.308,1.4,6.473,6.473,0,0,1-3.825,1.45,7.05,7.05,0,0,1-3.906-1.359,7.656,7.656,0,0,1-1.561-1.479.34.34,0,0,1,.019-.442Zm1.33-.426a8.229,8.229,0,0,0-.647.661,6.9,6.9,0,0,0,1.245,1.136A6.32,6.32,0,0,0,15.8,20.2a5.811,5.811,0,0,0,3.41-1.306,6.048,6.048,0,0,0,1.019-1.048,9.453,9.453,0,0,0-.81-.756,6.425,6.425,0,0,0-3.986-1.629,6.073,6.073,0,0,0-3.75,1.7Zm-5.206-4.7h8.215a.1.1,0,0,1,.093.093v.6a7.21,7.21,0,0,0-2.218.611l-.092.042h-6a.1.1,0,0,1-.093-.093V12.555a.093.093,0,0,1,.093-.093ZM4.778,4.514A.776.776,0,1,1,4,5.289a.776.776,0,0,1,.774-.774Zm1.688.1h8.215a.1.1,0,0,1,.093.093V5.871a.1.1,0,0,1-.093.093H6.466a.1.1,0,0,1-.093-.093V4.708A.093.093,0,0,1,6.466,4.615ZM4.778,8.438A.776.776,0,1,1,4,9.214a.776.776,0,0,1,.774-.776Zm1.688.1h8.215a.1.1,0,0,1,.093.093V9.795a.1.1,0,0,1-.093.093H6.466a.1.1,0,0,1-.093-.093V8.631A.093.093,0,0,1,6.466,8.538ZM4.778,12.361A.776.776,0,1,1,4,13.137a.776.776,0,0,1,.774-.776Zm10.36,4.076a.671.671,0,1,1-.669.679.679.679,0,0,1,.669-.679Z" fill="#0c0d0d" fill-rule="evenodd"/>
</svg>
