<svg id="trash" xmlns="http://www.w3.org/2000/svg" width="22" height="24.445" viewBox="0 0 22 24.445">
  <path id="trash-2" data-name="trash" d="M7.812,11.665a.943.943,0,1,1,1.884,0v6.979a.943.943,0,1,1-1.884,0ZM20.464,7.715,19.5,20.49a4.434,4.434,0,0,1-1.259,2.8,3.861,3.861,0,0,1-2.761,1.15H6.523A3.859,3.859,0,0,1,3.766,23.3h0A4.438,4.438,0,0,1,2.5,20.49L1.54,7.715H0V4.973c0-.66.324-.911.963-.911H5.487V2.146A2.152,2.152,0,0,1,7.633,0h6.738a2.152,2.152,0,0,1,2.141,2.146V4.06h4.645a1.231,1.231,0,0,1,.2.012.768.768,0,0,1,.645.7c0,.04,0,.076,0,.113V7.715Zm-1.89.034H3.43l.947,12.6a2.55,2.55,0,0,0,.71,1.611h0a1.989,1.989,0,0,0,1.43.6h8.952a2,2,0,0,0,1.43-.6,2.546,2.546,0,0,0,.714-1.611l.961-12.592ZM14.124,4.06V2.4H7.886V4.06Zm-1.816,7.605a.943.943,0,1,1,1.884,0v6.979a.943.943,0,1,1-1.884,0V11.665Z" fill="#05204a"/>
</svg>
