<svg xmlns="http://www.w3.org/2000/svg" width="24" height="28" viewBox="0 0 24 28">
  <path id="upload-files" d="M13.839,15.89h8.186a2.018,2.018,0,0,1,1.985,2.05v8.007A2.018,2.018,0,0,1,22.025,28H13.839a2.018,2.018,0,0,1-1.985-2.05V17.933a2.018,2.018,0,0,1,1.985-2.05Zm5.293-7.572H20.87a1.48,1.48,0,0,1,1.076.456,1.6,1.6,0,0,1,.441,1.112v3.832H21.064V9.891A.232.232,0,0,0,21,9.732a.217.217,0,0,0-.157-.064H19.139v4.046H17.747V7.973H11.963a.688.688,0,0,1-.5-.208.734.734,0,0,1-.208-.514V1.433H1.4V23.184H9.658v1.437H3.618v1.8a.232.232,0,0,0,.062.159.217.217,0,0,0,.154.064h5.82V28H3.843a1.57,1.57,0,0,1-1.526-1.574v-1.8H1.256a1.239,1.239,0,0,1-.882-.376,1.3,1.3,0,0,1-.364-.911V1.287A1.3,1.3,0,0,1,.374.376,1.222,1.222,0,0,1,1.256,0H11.963A.673.673,0,0,1,12.5.264l6.137,6.151a.714.714,0,0,1,.505.683V8.3ZM4.418,15.238a.435.435,0,0,0-.312.147.554.554,0,0,0,0,.673.435.435,0,0,0,.315.15H9.645v-.97Zm0,3.476a.435.435,0,0,0-.311.15.555.555,0,0,0,0,.67.435.435,0,0,0,.311.15H9.645v-.97Zm0-10.431a.435.435,0,0,0-.322.144.551.551,0,0,0,0,.683.435.435,0,0,0,.322.144H9.246A.436.436,0,0,0,9.555,9.1a.556.556,0,0,0,0-.668.436.436,0,0,0-.309-.151Zm0-3.476a.435.435,0,0,0-.311.15.465.465,0,0,0-.112.335.465.465,0,0,0,.112.335.435.435,0,0,0,.311.15H7.065a.436.436,0,0,0,.309-.151.465.465,0,0,0,.112-.334.465.465,0,0,0-.112-.334.436.436,0,0,0-.309-.151Zm0,6.955a.435.435,0,0,0-.322.144.551.551,0,0,0,0,.683.435.435,0,0,0,.322.144h8.16a.446.446,0,0,0,.319-.147.476.476,0,0,0,.122-.338.465.465,0,0,0-.119-.341.435.435,0,0,0-.322-.144ZM12.666,2.52l4.155,4.016H12.655V2.52Zm7.831,20a.51.51,0,0,0,.441-.212c.221-.353-.084-.7-.3-.948-.613-.695-2-1.952-2.3-2.319a.489.489,0,0,0-.783,0c-.313.376-1.777,1.711-2.36,2.385-.2.228-.441.558-.243.882a.51.51,0,0,0,.441.212h1.089V24.54a.628.628,0,0,0,.615.636h1.7a.628.628,0,0,0,.617-.636V22.519Z" transform="translate(-0.01 0)" fill-rule="evenodd"/>
</svg>
