<svg xmlns="http://www.w3.org/2000/svg" width="20.05" height="13.5" viewBox="0 0 20.05 13.5">
  <path id="Exclusion_1" data-name="Exclusion 1" d="M9.137,12.5C6.7,12.5,4.35,10.721,2.8,9.228A23.342,23.342,0,0,1,0,5.955l0-.007A21.908,21.908,0,0,1,2.8,2.978C4.35,1.619,6.7,0,9.137,0s4.937,1.619,6.611,2.978a25.121,25.121,0,0,1,3.08,2.978l-.006.009a26.631,26.631,0,0,1-3.075,3.264C14.074,10.721,11.568,12.5,9.137,12.5ZM9.414,1.816A4.182,4.182,0,1,0,13.6,6,4.187,4.187,0,0,0,9.414,1.816Z" transform="translate(0.599 0.5)" fill="#05204A" stroke="#05204A" stroke-width="1"/>
</svg>
