<svg xmlns="http://www.w3.org/2000/svg" width="24.554" height="24" viewBox="0 0 24.554 24">
  <g id="Group_12041" data-name="Group 12041" transform="translate(-326 -600.999)">
    <g id="Group_11996" data-name="Group 11996" transform="translate(338.714 613.035)">
      <g id="Group_262" data-name="Group 262" transform="translate(0 0)">
        <g id="Path_24" data-name="Path 24" fill="none">
          <path d="M4.556,0A4.556,4.556,0,1,1,0,4.556,4.556,4.556,0,0,1,4.556,0Z" stroke="none"/>
          <path d="M 4.556023120880127 1.000002861022949 C 2.595222949981689 1.000002861022949 1.000002861022949 2.595222949981689 1.000002861022949 4.556023120880127 C 1.000002861022949 6.516822814941406 2.595222949981689 8.112043380737305 4.556023120880127 8.112043380737305 C 6.516822814941406 8.112043380737305 8.112043380737305 6.516822814941406 8.112043380737305 4.556023120880127 C 8.112043380737305 2.595222949981689 6.516822814941406 1.000002861022949 4.556023120880127 1.000002861022949 M 4.556023120880127 2.86102294921875e-06 C 7.072243213653564 2.86102294921875e-06 9.112043380737305 2.039803028106689 9.112043380737305 4.556023120880127 C 9.112043380737305 7.072243213653564 7.072243213653564 9.112043380737305 4.556023120880127 9.112043380737305 C 2.039803028106689 9.112043380737305 2.86102294921875e-06 7.072243213653564 2.86102294921875e-06 4.556023120880127 C 2.86102294921875e-06 2.039803028106689 2.039803028106689 2.86102294921875e-06 4.556023120880127 2.86102294921875e-06 Z" stroke="none" fill="#ffffff"/>
        </g>
        <path id="Path_19" data-name="Path 19" d="M-.937-.375l2.19,1.9" transform="translate(9.176 8.519)" fill="#ffffff" stroke="#ffffff" stroke-linecap="round" stroke-width="2"/>
      </g>
    </g>
    <path id="Subtraction_25" data-name="Subtraction 25" d="M9.213,24h0a15.392,15.392,0,0,1-5.87-1.044,5.247,5.247,0,0,1-3.3-3.305V15.982c.306,1.4,1.445,2.552,3.3,3.345a15.983,15.983,0,0,0,6.108,1.1,19.46,19.46,0,0,0,3.329-.281,6.307,6.307,0,0,0,.715.808,6.505,6.505,0,0,0,2.934,1.6A17.21,17.21,0,0,1,9.213,24Zm.417-4.746h0A16.274,16.274,0,0,1,3.475,18.16,5.479,5.479,0,0,1,0,14.731V11.063C.315,12.5,1.517,13.7,3.477,14.534A16.822,16.822,0,0,0,9.87,15.686c.614,0,1.23-.028,1.83-.083a5.924,5.924,0,0,0-.088,1.016,5.834,5.834,0,0,0,.547,2.478A20.444,20.444,0,0,1,9.63,19.254Zm0-4.821h0a16.626,16.626,0,0,1-6.155-1.068A5.413,5.413,0,0,1,0,10.016V6.434c.315,1.4,1.517,2.577,3.477,3.39A17.179,17.179,0,0,0,9.87,10.949a16.593,16.593,0,0,0,6.308-1.121c1.894-.806,3-1.964,3.2-3.348v3.58a2.646,2.646,0,0,1-.121.541,6.836,6.836,0,0,0-1.21-.108A6.558,6.558,0,0,0,13.5,12.289a6.087,6.087,0,0,0-1.4,2A20.951,20.951,0,0,1,9.63,14.433Zm.058-4.878c-5.315,0-9.64-2.143-9.64-4.778S4.372,0,9.688,0s9.64,2.143,9.64,4.778S15,9.555,9.688,9.555Z" transform="translate(326 600.999)" fill="#ffffff"/>
  </g>
</svg>
