<svg xmlns="http://www.w3.org/2000/svg" width="24" height="24" viewBox="0 0 24 24">
  <g id="Group_1870" data-name="Group 1870" transform="translate(-293 -470)">
    <path id="reminder" d="M8.628,13.355a.547.547,0,1,1,0-1.09h2.081a6.671,6.671,0,0,0-.343.707c-.053.125-.1.252-.145.391ZM19.1,22.434a1.809,1.809,0,0,1-.243.605A2.12,2.12,0,0,1,17.043,24a2.305,2.305,0,0,1-.724-.113,2.084,2.084,0,0,1-.639-.338,2.033,2.033,0,0,1-.473-.5,1.8,1.8,0,0,1-.245-.625.209.209,0,0,1,.181-.238h3.743a.2.2,0,0,1,.213.2.226.226,0,0,1,0,.055ZM18.213,11.3a4.663,4.663,0,0,1,.528.158,5.318,5.318,0,0,1,.726.328l.028.016a4.954,4.954,0,0,1,.618.414,4.506,4.506,0,0,1,.552.512h0a4.241,4.241,0,0,1,.452.6,4.4,4.4,0,0,1,.343.662h0a3.867,3.867,0,0,1,.213.727,3.926,3.926,0,0,1,.072.764V17.09h0a5.325,5.325,0,0,0,.047.687,5.271,5.271,0,0,0,.134.658h0a3.228,3.228,0,0,0,.234.6,3.665,3.665,0,0,0,.369.586h0a3.528,3.528,0,0,0,.537.551,6.177,6.177,0,0,0,.771.551.322.322,0,0,1,.146.381.366.366,0,0,1-.359.234H10.409a.384.384,0,0,1-.26-.1.323.323,0,0,1-.108-.238.335.335,0,0,1,.185-.3,6.167,6.167,0,0,0,.767-.549,3.432,3.432,0,0,0,.533-.553l.015-.018a4.061,4.061,0,0,0,.354-.566,3.355,3.355,0,0,0,.239-.6s0,0,0-.012a4.537,4.537,0,0,0,.126-.629,5.287,5.287,0,0,0,.045-.7v-1.6a4.038,4.038,0,0,1,.075-.766,3.786,3.786,0,0,1,.213-.729,4.4,4.4,0,0,1,.347-.668,4.336,4.336,0,0,1,.458-.6h0a4.666,4.666,0,0,1,.56-.52,4.767,4.767,0,0,1,1.926-.908.98.98,0,0,1,.326-.492,1.255,1.255,0,0,1,.848-.25,1.29,1.29,0,0,1,.839.254,1.026,1.026,0,0,1,.326.492Zm.2,1.035a4.217,4.217,0,0,0-.592-.166.334.334,0,0,1-.3-.279.447.447,0,0,0-.132-.295.553.553,0,0,0-.339-.094.507.507,0,0,0-.328.082.434.434,0,0,0-.13.3h0a.331.331,0,0,1-.283.279,3.914,3.914,0,0,0-.639.162,3.865,3.865,0,0,0-.586.26,3.766,3.766,0,0,0-.526.348,3.854,3.854,0,0,0-.454.42h0a3.746,3.746,0,0,0-.369.488,3.831,3.831,0,0,0-.281.543,3.081,3.081,0,0,0-.177.586,3.209,3.209,0,0,0-.058.617v1.521a5.652,5.652,0,0,1-.049.742,5.156,5.156,0,0,1-.143.69v.016a3.738,3.738,0,0,1-.273.684,4.577,4.577,0,0,1-.392.627l-.013.02a4.116,4.116,0,0,1-.605.625l1.425-6.918L17.043,10.8l4,2.9s.872,6.41.695,6.182h0a4.272,4.272,0,0,1-.413-.652,3.689,3.689,0,0,1-.281-.674h0a5.532,5.532,0,0,1-.143-.709,6.1,6.1,0,0,1-.049-.73h0V15.588a3.122,3.122,0,0,0-.06-.619,3.013,3.013,0,0,0-.173-.586h0a3.579,3.579,0,0,0-.277-.541,3.526,3.526,0,0,0-.366-.484h0a3.637,3.637,0,0,0-.45-.418,4.011,4.011,0,0,0-.5-.334L19,12.592a4.7,4.7,0,0,0-.586-.264Zm-14.84.479a.382.382,0,0,1,.131-.543.465.465,0,0,1,.6.1l.239.328.948-1.057a.458.458,0,0,1,.417-.16.432.432,0,0,1,.35.263.378.378,0,0,1-.09.407L4.849,13.611a.4.4,0,0,1-.1.088.466.466,0,0,1-.609-.109l-.567-.781Zm0-3.828a.375.375,0,0,1-.043-.411.441.441,0,0,1,.374-.23.451.451,0,0,1,.4.193l.239.326.948-1.053a.468.468,0,0,1,.6-.039.38.38,0,0,1,.075.549L4.849,9.785a.414.414,0,0,1-.1.09.464.464,0,0,1-.609-.109l-.567-.781Zm0-3.83a.375.375,0,0,1-.043-.411.441.441,0,0,1,.374-.23.451.451,0,0,1,.4.193l.239.324.948-1.057a.468.468,0,0,1,.62-.053.381.381,0,0,1,.058.568L4.849,5.955a.447.447,0,0,1-.1.09.466.466,0,0,1-.609-.111l-.567-.781Zm5.06.092A.571.571,0,0,1,8.034,4.7a.571.571,0,0,1,.594-.545h6.334a.571.571,0,0,1,.594.545.571.571,0,0,1-.594.545ZM1.378,0H18.321A1.44,1.44,0,0,1,19.3.368a1.209,1.209,0,0,1,.4.893V9.205l-.1-.041a6.967,6.967,0,0,0-.795-.238h0a1.527,1.527,0,0,0-.288-.527V1.268a.187.187,0,0,0-.055-.127.224.224,0,0,0-.141-.053H1.378a.188.188,0,0,0-.194.18V16.881a.188.188,0,0,0,.194.18H9.921v.551c0,.18,0,.355-.017.527H1.382A1.437,1.437,0,0,1,.4,17.773a1.192,1.192,0,0,1-.4-.895V1.264A1.209,1.209,0,0,1,.4.369,1.44,1.44,0,0,1,1.378,0ZM8.622,9.3a.611.611,0,0,1-.544-.262.506.506,0,0,1,0-.564.611.611,0,0,1,.544-.262h5.846a.607.607,0,0,1,.5.254A.5.5,0,0,1,15,8.994c-.17.045-.339.1-.5.154-.134.047-.266.1-.4.152Z" transform="translate(293 470)" fill="#fff"/>
    <g id="Rectangle_4144" data-name="Rectangle 4144" transform="translate(293 470)" fill="none" stroke="#707070" stroke-width="1" opacity="0">
      <rect width="24" height="24" stroke="none"/>
      <rect x="0.5" y="0.5" width="23" height="23" fill="none"/>
    </g>
  </g>
</svg>
