<svg xmlns="http://www.w3.org/2000/svg" width="24.151" height="24.129" viewBox="0 0 24.151 24.129">
  <g id="Group_12136" data-name="Group 12136" transform="translate(-1673 -696.998)">
    <path id="Subtraction_27" data-name="Subtraction 27" d="M18.109,24.129H1.263A1.26,1.26,0,0,1,0,22.866V1.264A1.261,1.261,0,0,1,1.263,0H12.1a.7.7,0,0,1,.543.259l6.207,6.049a.706.706,0,0,1,.517.678l0,0V9.717c-.135-.009-.277-.014-.423-.014a6.49,6.49,0,1,0,0,12.98c.141,0,.283,0,.423-.014v.2A1.263,1.263,0,0,1,18.109,24.129ZM12.8,2.469V6.421h4.219Z" transform="translate(1673 696.998)" fill="#fff"/>
    <g id="business-management_1_" data-name="business-management (1)" transform="translate(1687.586 707.993)">
      <path id="Path_17673" data-name="Path 17673" d="M7.048,7.438a.343.343,0,0,1-.077.113L6.624,7.9l0,0a.343.343,0,0,1-.113.077.341.341,0,0,1-.27,0A.347.347,0,0,1,6.129,7.9L5.9,7.674l-.041.02c-.038.018-.078.034-.117.049a.007.007,0,0,1-.006,0c-.038.016-.079.029-.124.043a.343.343,0,0,1-.043.012v.276a.365.365,0,0,1-.026.135.328.328,0,0,1-.077.111l0,0a.366.366,0,0,1-.113.075.357.357,0,0,1-.131.026h-.5A.368.368,0,0,1,4.591,8.4a.361.361,0,0,1-.19-.19.362.362,0,0,1-.026-.135V7.76l-.046-.017c-.041-.016-.081-.034-.123-.052s-.081-.038-.119-.058l-.037-.02-.194.2,0,0a.36.36,0,0,1-.113.073.366.366,0,0,1-.263,0,.357.357,0,0,1-.113-.072s0,0,0,0l-.346-.351a.337.337,0,0,1-.078-.111.333.333,0,0,1-.028-.137.349.349,0,0,1,.028-.137.332.332,0,0,1,.078-.111l.222-.222c-.008-.016-.014-.029-.02-.043-.017-.038-.034-.078-.05-.121s-.03-.083-.043-.125a.392.392,0,0,1-.012-.043H2.834A.365.365,0,0,1,2.7,6.386a.328.328,0,0,1-.111-.077l0,0a.38.38,0,0,1-.075-.111.357.357,0,0,1-.026-.131v-.5a.332.332,0,0,1,.1-.248A.343.343,0,0,1,2.7,5.243a.362.362,0,0,1,.135-.026h.315c.006-.016.01-.03.017-.046.016-.041.034-.081.052-.123s.038-.081.058-.119c.006-.012.014-.024.02-.037L3.1,4.7l0,0a.36.36,0,0,1-.073-.113.366.366,0,0,1,0-.263A.357.357,0,0,1,3.094,4.2s0,0,0,0l.351-.347a.343.343,0,0,1,.113-.077.341.341,0,0,1,.27,0,.347.347,0,0,1,.111.078l.222.222.043-.02c.038-.017.078-.034.121-.05s.083-.03.125-.043c.016,0,.029-.01.043-.012V3.677a.365.365,0,0,1,.026-.135A.328.328,0,0,1,4.6,3.43l0,0a.38.38,0,0,1,.111-.075.357.357,0,0,1,.131-.026h.5a.368.368,0,0,1,.135.026.361.361,0,0,1,.19.19.362.362,0,0,1,.026.135v.315l.046.017c.041.016.081.034.123.052s.081.038.119.058l.037.02.194-.194a.378.378,0,0,1,.113-.078.341.341,0,0,1,.27,0,.331.331,0,0,1,.113.078l.347.347,0,0a.343.343,0,0,1,.077.113.336.336,0,0,1-.078.38l-.222.226c.006.014.014.028.02.041.016.035.032.073.049.115a.007.007,0,0,1,0,.006c.016.04.03.083.043.125a.392.392,0,0,1,.012.043h.276a.365.365,0,0,1,.135.026.328.328,0,0,1,.111.077l0,0a.38.38,0,0,1,.075.111.357.357,0,0,1,.026.131v.5a.349.349,0,0,1-.1.25.343.343,0,0,1-.113.077.362.362,0,0,1-.135.026H6.916c-.006.016-.01.03-.017.046-.016.041-.032.081-.052.123s-.038.081-.058.119c-.006.012-.014.024-.02.037l.194.194a.378.378,0,0,1,.078.113.341.341,0,0,1,0,.27l.006,0Zm-2.9,3.141A4.783,4.783,0,0,1,3.828,1.25l.155.6a4.166,4.166,0,0,0,.161,8.1V9.309l1.165.956-1.165.956v-.644Zm1.78-9.4a4.783,4.783,0,0,1,.645,9.229l-.1-.292-.1-.292L6.441,9.8a4.166,4.166,0,0,0-.52-7.989v.634L4.758,1.486,5.923.53v.649ZM5.9,5.876a.935.935,0,0,1-.017.173h0a.86.86,0,0,1-.128.311.722.722,0,0,1-.1.127.853.853,0,0,1-.127.1.96.96,0,0,1-.149.079l-.006,0a.887.887,0,0,1-.155.046.915.915,0,0,1-.346,0,.86.86,0,0,1-.311-.128.82.82,0,0,1-.127-.1.9.9,0,0,1-.1-.127.96.96,0,0,1-.079-.149s0,0,0-.006A.887.887,0,0,1,4.2,6.051a.915.915,0,0,1,0-.346.86.86,0,0,1,.128-.311.722.722,0,0,1,.1-.127.853.853,0,0,1,.127-.1,1.043,1.043,0,0,1,.149-.08l.006,0a.97.97,0,0,1,.156-.046.915.915,0,0,1,.346,0,.83.83,0,0,1,.162.049.782.782,0,0,1,.149.08.82.82,0,0,1,.127.1.9.9,0,0,1,.1.127.96.96,0,0,1,.079.149s0,0,0,.006a.887.887,0,0,1,.046.155.872.872,0,0,1,.017.173Z" transform="translate(-0.25 -0.53)" fill="#fff" fill-rule="evenodd"/>
    </g>
    <line id="Line_1000" data-name="Line 1000" x2="8.641" transform="translate(1674.473 705.345)" fill="none" stroke="#05204a" stroke-linecap="round" stroke-width="1"/>
    <line id="Line_1001" data-name="Line 1001" x2="8.641" transform="translate(1674.473 708.684)" fill="none" stroke="#05204a" stroke-linecap="round" stroke-width="1"/>
    <line id="Line_1002" data-name="Line 1002" x2="8.641" transform="translate(1674.473 712.022)" fill="none" stroke="#05204a" stroke-linecap="round" stroke-width="1"/>
  </g>
</svg>
