<svg
  xmlns="http://www.w3.org/2000/svg"
  width="36"
  height="36"
  viewBox="0 0 36 36"
>
  <g
    id="Group_12137"
    data-name="Group 12137"
    transform="translate(16224 16452)"
  >
    <rect
      id="Rectangle_4685"
      data-name="Rectangle 4685"
      width="36"
      height="36"
      rx="3"
      transform="translate(-16224 -16452)"
      fill="#e1e2ef"
    />
    <g
      id="Group_12"
      data-name="Group 12"
      transform="translate(-16221.762 -16449.76)"
    >
      <g
        id="Union_4"
        data-name="Union 4"
        transform="matrix(0.966, 0.259, -0.259, 0.966, 6.661, 0)"
        fill="#05204a"
      >
        <path
          d="M 15.98265075683594 24.72204971313477 C 15.9610424041748 24.69847297668457 15.932053565979 24.65554809570312 15.91527080535889 24.58895492553711 L 15.35882091522217 22.38045501708984 L 15.13733100891113 21.50136566162109 L 14.24080085754395 21.63583564758301 C 13.78599071502686 21.70405578613281 13.32035064697266 21.73864555358887 12.85682106018066 21.73864555358887 C 12.32420063018799 21.73864555358887 11.79068088531494 21.69310569763184 11.27106094360352 21.60327529907227 L 10.45990085601807 21.46306419372559 L 10.16643142700195 22.23215484619141 L 9.485058784484863 24.01782035827637 L 8.209580421447754 23.52523231506348 L 8.856731414794922 21.82952499389648 L 9.16671085357666 21.01729393005371 L 8.405501365661621 20.59736442565918 C 7.652241230010986 20.18181419372559 6.960980892181396 19.66264533996582 6.350931167602539 19.05426406860352 L 5.748361110687256 18.45334434509277 L 5.058801174163818 18.9520149230957 L 3.658155202865601 19.96491622924805 L 2.860734462738037 18.87203598022461 L 4.279140949249268 17.84629440307617 L 4.961360931396484 17.35293579101562 L 4.591471195220947 16.59662437438965 C 4.248991012573242 15.89637470245361 3.9985511302948 15.15418529510498 3.847100973129272 14.39066505432129 L 3.681451082229614 13.55557441711426 L 2.830621004104614 13.58586502075195 L 1.047829389572144 13.64934730529785 L 1.001684308052063 12.29965114593506 L 2.802860975265503 12.23552513122559 L 3.64379096031189 12.20558452606201 L 3.758021116256714 11.37191486358643 C 3.876211166381836 10.50941467285156 4.118081092834473 9.670174598693848 4.476921081542969 8.877505302429199 L 4.851551055908203 8.049954414367676 L 4.063691139221191 7.597784996032715 L 2.741151809692383 6.838753223419189 L 3.421782255172729 5.667009830474854 L 4.945761203765869 6.541924953460693 L 5.628221035003662 6.933724880218506 L 6.169500827789307 6.362534999847412 C 6.711050987243652 5.791064739227295 7.324581146240234 5.290615081787109 7.993041038513184 4.87508487701416 L 8.721860885620117 4.422034740447998 L 8.384671211242676 3.632884740829468 L 7.647796154022217 1.90831470489502 L 8.906339645385742 1.377628445625305 L 9.659050941467285 3.139254808425903 L 9.986801147460938 3.906314849853516 L 10.80021095275879 3.721474885940552 C 11.47020149230957 3.569234848022461 12.16214084625244 3.492034912109375 12.85682106018066 3.492034912109375 C 13.17684078216553 3.492034912109375 13.49947071075439 3.508544921875 13.81576061248779 3.541104793548584 L 14.64710140228271 3.626694917678833 L 14.87893104553223 2.823764801025391 L 15.40255451202393 1.010210514068604 L 16.71806907653809 1.384963035583496 L 16.20475196838379 3.162824869155884 L 15.96710109710693 3.985904932022095 L 16.74396133422852 4.347034931182861 C 17.46260070800781 4.68110466003418 18.13679122924805 5.108154773712158 18.74780082702637 5.616334915161133 L 19.3996410369873 6.158484935760498 L 20.0411205291748 5.604115009307861 L 21.38452911376953 4.443122386932373 L 22.27953338623047 5.46668004989624 L 20.92752075195312 6.63509464263916 L 20.28778076171875 7.18797492980957 L 20.72662162780762 7.910714626312256 C 21.2490119934082 8.771044731140137 21.62160110473633 9.704014778137207 21.83403015136719 10.68369483947754 L 22.02043151855469 11.5433349609375 L 22.89683151245117 11.46812438964844 L 24.61472511291504 11.32069206237793 L 24.73492431640625 12.66760444641113 L 22.88309097290039 12.82622528076172 L 22.07210159301758 12.89569473266602 L 21.97550010681152 13.70389461517334 C 21.8531608581543 14.72741508483887 21.55923080444336 15.71450519561768 21.10187149047852 16.63775444030762 L 20.69229125976562 17.46456527709961 L 21.48355102539062 17.93920516967773 L 22.75899887084961 18.70427894592285 L 22.0626277923584 19.86112785339355 L 20.53985023498535 18.94768524169922 L 19.87542152404785 18.54912567138672 L 19.32355117797852 19.09296417236328 C 18.67286109924316 19.73417472839355 17.93307113647461 20.27343559265137 17.12473106384277 20.69576454162598 L 16.39485168457031 21.07709503173828 L 16.62912178039551 21.8665657043457 C 16.63064193725586 21.8717041015625 16.63208198547363 21.87689399719238 16.63340187072754 21.88214492797852 L 17.23634147644043 24.27615547180176 C 17.2513542175293 24.33575820922852 17.24845695495605 24.38264465332031 17.24233245849609 24.4124698638916 L 15.98265075683594 24.72204971313477 Z"
          stroke="none"
        />
        <path
          d="M 12.85682106018066 20.73864555358887 C 13.27086067199707 20.73864555358887 13.68659114837646 20.7077751159668 14.09246063232422 20.64690399169922 L 15.44789218902588 20.4435977935791 L 16.66166114807129 19.80944442749023 C 17.38214111328125 19.43301391601562 18.04157066345215 18.95231437683105 18.62165069580078 18.38068389892578 L 19.60017585754395 17.41640663146973 L 20.20579147338867 16.1938648223877 C 20.61244010925293 15.37297439575195 20.8737907409668 14.49530506134033 20.98257064819336 13.58521461486816 L 21.14509963989258 12.22542190551758 L 20.85674095153809 10.89561462402344 C 20.66788101196289 10.02462482452393 20.33652114868164 9.194984436035156 19.87186050415039 8.42972469329834 L 19.16303634643555 7.26236629486084 L 18.10835075378418 6.385174751281738 C 17.56369018554688 5.932174682617188 16.96282196044922 5.551534652709961 16.32242012023926 5.253844738006592 L 15.0806999206543 4.676620006561279 L 13.71335124969482 4.535844802856445 C 13.43095111846924 4.50677490234375 13.14277076721191 4.492034912109375 12.85682106018066 4.492034912109375 C 12.23659133911133 4.492034912109375 11.61919116973877 4.560864925384521 11.02179145812988 4.696614742279053 L 9.686030387878418 5.00014591217041 L 8.520971298217773 5.724374771118164 C 7.925081253051758 6.094794750213623 7.378140926361084 6.540935039520264 6.895350933074951 7.050384998321533 L 5.950268745422363 8.047680854797363 L 5.38792085647583 9.289904594421387 C 5.068891048431396 9.994645118713379 4.853850841522217 10.74080467224121 4.748761177062988 11.50767517089844 L 4.563257217407227 12.86144733428955 L 4.827991008758545 14.19610500335693 C 4.962621212005615 14.87483501434326 5.185281276702881 15.53467464447021 5.489780902862549 16.15727424621582 L 6.087369441986084 17.37914085388184 L 7.057061195373535 18.3461856842041 C 7.600931167602539 18.8885555267334 8.217121124267578 19.35137557983398 8.888530731201172 19.72176551818848 L 10.08924770355225 20.38415718078613 L 11.44139099121094 20.61789512634277 C 11.90491104125977 20.6980152130127 12.38113117218018 20.73864555358887 12.85682106018066 20.73864555358887 M 15.95522117614746 25.73453521728516 C 15.50864124298096 25.73457527160645 15.08009147644043 25.36703491210938 14.94559097290039 24.83332443237305 L 14.38913059234619 22.62477493286133 C 13.88944149017334 22.6997241973877 13.37754058837891 22.73864555358887 12.85682106018066 22.73864555358887 C 12.2578010559082 22.73864555358887 11.67135143280029 22.68730545043945 11.10072135925293 22.58866500854492 L 10.40005111694336 24.42490577697754 C 10.21309185028076 24.91481399536133 9.663053512573242 25.15828895568848 9.171501159667969 24.96870422363281 L 7.810201168060303 24.44297409057617 C 7.31865119934082 24.25306510925293 7.071890830993652 23.70203399658203 7.258851051330566 23.21179389953613 L 7.922461032867432 21.47296524047852 C 7.083291053771973 21.01002502441406 6.317221164703369 20.43292427062988 5.644791126251221 19.7623348236084 L 4.210310935974121 20.79970550537109 C 3.783481121063232 21.10857391357422 3.186791181564331 21.01558494567871 2.877601146697998 20.59171485900879 L 2.020991086959839 19.41771507263184 C 1.711801052093506 18.99417495727539 1.807091116905212 18.40010452270508 2.233911037445068 18.09124565124512 L 3.693150997161865 17.03597450256348 C 3.317641019821167 16.26818466186523 3.03705096244812 15.44651508331299 2.866211175918579 14.58523464202881 L 1.036581039428711 14.6503849029541 C 0.5098702907562256 14.66915798187256 0.06826105713844299 14.25970458984375 0.05019105598330498 13.73562526702881 L 0.0005710574332624674 12.28429508209229 C -0.01749894209206104 11.7605447769165 0.3951910436153412 11.32057476043701 0.9222310781478882 11.30184459686279 L 2.767281055450439 11.23615455627441 C 2.900840997695923 10.26146507263184 3.173941135406494 9.330974578857422 3.565921068191528 8.465094566345215 L 2.198431015014648 7.680264949798584 C 1.741701006889343 7.418395042419434 1.585301041603088 6.837794780731201 1.848821043968201 6.384034633636475 L 2.579251050949097 5.126564979553223 C 2.842771053314209 4.672474384307861 3.426650524139404 4.517053604125977 3.883371114730835 4.778924942016602 L 5.44365119934082 5.674685001373291 C 6.042291164398193 5.042974948883057 6.721291065216064 4.488174915313721 7.46510124206543 4.025804996490479 L 6.706840991973877 2.251184940338135 C 6.500491142272949 1.768504858016968 6.72688102722168 1.211564898490906 7.211861133575439 1.006864786148071 L 8.556071281433105 0.4400648474693298 C 9.041379928588867 0.2356852889060974 9.601931571960449 0.4607645571231842 9.808280944824219 0.9434448480606079 L 10.57862091064453 2.746334791183472 C 11.31121063232422 2.579864740371704 12.07346153259277 2.492034912109375 12.85682106018066 2.492034912109375 C 13.21518135070801 2.492034912109375 13.56936073303223 2.510454893112183 13.91817092895508 2.546364784240723 L 14.45469093322754 0.688144862651825 C 14.60025119781494 0.1841044723987579 15.12893390655518 -0.1073446646332741 15.63593101501465 0.03690484538674355 L 17.03961181640625 0.4367748498916626 C 17.5462818145752 0.5810248255729675 17.83937072753906 1.106414794921875 17.69381141662598 1.610454797744751 L 17.16550064086914 3.440224885940552 C 17.96880149841309 3.813644886016846 18.71478080749512 4.288204669952393 19.38725090026855 4.847504615783691 L 20.76272010803223 3.658804893493652 C 21.16063117980957 3.315115451812744 21.76357078552246 3.357174396514893 22.10956192016602 3.753114938735962 L 23.06802177429199 4.849245071411133 C 23.41402053833008 5.244854927062988 23.37229156494141 5.844174861907959 22.97438049316406 6.187864780426025 L 21.58139038085938 7.39170503616333 C 22.1511402130127 8.330035209655762 22.5717716217041 9.367044448852539 22.81132125854492 10.4717845916748 L 24.57159042358398 10.32071495056152 C 25.0966682434082 10.27570629119873 25.55996131896973 10.66276550292969 25.60661125183105 11.18520450592041 L 25.73574066162109 12.6322546005249 C 25.78240013122559 13.15469455718994 25.39468193054199 13.61470508575439 24.8696117401123 13.65972518920898 L 22.96843147277832 13.82257461547852 C 22.8300609588623 14.980224609375 22.49527168273926 16.07773399353027 21.99795150756836 17.08165550231934 L 23.3134708404541 17.87076568603516 C 23.76559066772461 18.141845703125 23.91312026977539 18.72605514526367 23.6427116394043 19.17522430419922 L 22.89388084411621 20.41921424865723 C 22.62379264831543 20.86838531494141 22.03793144226074 21.01262664794922 21.58581161499023 20.74122428894043 L 20.02545166015625 19.80523490905762 C 19.30923080444336 20.51102447509766 18.48849105834961 21.11150550842285 17.58780097961426 21.58208465576172 C 17.59326171875 21.60048484802246 17.59838104248047 21.61909484863281 17.60312080383301 21.63791465759277 L 18.2060604095459 24.03192520141602 C 18.35984039306641 24.64242553710938 18.07102012634277 25.23878479003906 17.56074142456055 25.36397552490234 L 16.14752197265625 25.71128463745117 C 16.08362197875977 25.72697448730469 16.01919174194336 25.73452568054199 15.95522117614746 25.73453521728516 Z"
          stroke="none"
          fill="#05204a"
        />
      </g>
      <g
        id="Ellipse_19"
        data-name="Ellipse 19"
        transform="translate(8.427 8.305)"
        fill="none"
        stroke="#e1e2ef"
        stroke-linecap="round"
        stroke-width="1.4"
        stroke-dasharray="2.8"
      >
        <circle cx="7.334" cy="7.334" r="7.334" stroke="none" />
        <circle cx="7.334" cy="7.334" r="6.634" fill="none" />
      </g>
      <g
        id="Ellipse_20"
        data-name="Ellipse 20"
        transform="translate(11.423 11.421)"
        fill="none"
        stroke="#e1e2ef"
        stroke-width="1"
      >
        <circle cx="4.339" cy="4.339" r="4.339" stroke="none" />
        <circle cx="4.339" cy="4.339" r="3.839" fill="none" />
      </g>
    </g>
  </g>
</svg>
